<svg width="356" height="356" viewBox="0 0 356 356" fill="none" xmlns="http://www.w3.org/2000/svg">
<g clip-path="url(#clip0_35_145)">
<rect width="356" height="356" rx="37.2139" fill="#3653C7"/>
<circle cx="295.836" cy="-8.69455" r="145.715" fill="#3B5BDB"/>
<path d="M162.405 261.368C141.646 261.368 123.974 257.508 109.391 249.787C94.9797 242.067 83.9994 231.258 76.4505 217.361C68.9016 203.464 65.1271 187.251 65.1271 168.722C65.1271 154.311 67.3575 141.357 71.8182 129.863C76.4505 118.196 83.0558 108.245 91.6341 100.01C100.212 91.6033 110.678 85.2553 123.031 80.9662C135.555 76.5054 149.709 74.2751 165.493 74.2751C174.072 74.2751 182.822 75.1329 191.743 76.8486C200.664 78.3927 209.414 81.3951 217.993 85.8558C222.453 87.9146 225.456 90.8312 227 94.6057C228.716 98.2086 229.23 102.069 228.544 106.186C228.029 110.132 226.571 113.821 224.169 117.252C221.939 120.512 218.85 122.743 214.904 123.944C210.958 124.973 206.498 124.372 201.522 122.142C196.375 119.74 190.799 117.939 184.795 116.738C178.79 115.365 172.442 114.679 165.751 114.679C154.256 114.679 144.648 116.738 136.928 120.855C129.379 124.973 123.717 131.064 119.943 139.127C116.168 147.191 114.281 157.056 114.281 168.722C114.281 186.222 118.57 199.433 127.148 208.354C135.727 217.276 148.423 221.736 165.236 221.736C170.383 221.736 175.959 221.222 181.964 220.192C188.14 219.163 194.317 217.704 200.493 215.817L191.743 233.574V189.568H173.729C167.895 189.568 163.349 188.109 160.089 185.193C157.001 182.276 155.457 178.158 155.457 172.84C155.457 167.521 157.001 163.49 160.089 160.744C163.349 157.828 167.895 156.37 173.729 156.37H211.816C217.821 156.37 222.368 157.999 225.456 161.259C228.716 164.347 230.345 168.894 230.345 174.899V231.773C230.345 236.92 229.23 241.295 227 244.898C224.941 248.501 221.596 251.074 216.963 252.618C208.9 255.363 200.15 257.508 190.714 259.052C181.277 260.596 171.841 261.368 162.405 261.368Z" fill="#FFF6F6"/>
<circle cx="276.313" cy="174.037" r="30.0241" fill="#A5B4FC"/>
</g>
<defs>
<clipPath id="clip0_35_145">
<rect width="356" height="356" rx="37.2139" fill="white"/>
</clipPath>
</defs>
</svg>
