<?xml version="1.0" encoding="UTF-8"?>
<svg version="1.1" xmlns="http://www.w3.org/2000/svg" width="400" height="354">
<path d="M0 0 C2.32891212 3.49336818 2.23551143 4.86007865 2.1953125 8.98046875 C2.18886719 10.14384766 2.18242187 11.30722656 2.17578125 12.50585938 C2.15902344 13.72080078 2.14226562 14.93574219 2.125 16.1875 C2.11597656 17.41404297 2.10695313 18.64058594 2.09765625 19.90429688 C2.07406017 22.93639295 2.04113841 25.96809938 2 29 C2.98335327 28.6277832 2.98335327 28.6277832 3.98657227 28.24804688 C50.90309433 10.7976669 50.90309433 10.7976669 69 14 C71 16 71 16 71.01171875 18.96875 C70.90472656 20.1340625 70.79773438 21.299375 70.6875 22.5 C70.58824219 23.6653125 70.48898437 24.830625 70.38671875 26.03125 C70 29 70 29 69 31 C69.66386719 31.03738281 70.32773437 31.07476562 71.01171875 31.11328125 C76.07036379 31.4899103 79.84180819 31.81205295 84 35 C83.41523944 42.09406894 82.36766005 49.01563899 81 56 C82.093125 55.938125 83.18625 55.87625 84.3125 55.8125 C88 56 88 56 89.4140625 57.4765625 C91.57845604 59.55565975 93.10855812 59.42763667 96.0625 59.5625 C100.79166667 59.79166667 100.79166667 59.79166667 103 62 C103.43660754 74.28738364 100.79408127 87.23211863 99.40283203 99.41992188 C99.01493655 102.86725477 98.64293809 106.31586273 98.27734375 109.765625 C96.48283057 126.60151106 94.15014932 143.32806342 91.69537354 160.07867432 C89.06305309 178.0710578 86.68052454 196.01719558 85.09130859 214.1340332 C83.95125528 227.01344668 82.39725113 239.82461994 80.7802124 252.65083313 C80.22566123 257.08421236 79.71047128 261.52068913 79.22016907 265.96162415 C78.88146314 269.02811992 78.53351688 272.09354087 78.18527222 275.15896606 C78.02132057 276.62532259 77.86184682 278.09218735 77.70706177 279.55953979 C77.49228355 281.59045433 77.26021561 283.61951802 77.02734375 285.6484375 C76.90093506 286.80520996 76.77452637 287.96198242 76.64428711 289.15380859 C75.9400156 292.26498603 75.44326596 293.06746697 73 295 C71.12600708 295.42323303 71.12600708 295.42323303 68.98876953 295.49243164 C68.18056763 295.52588181 67.37236572 295.55933197 66.53967285 295.59379578 C65.66290894 295.61569473 64.78614502 295.63759369 63.8828125 295.66015625 C62.50893372 295.7120385 62.50893372 295.7120385 61.1072998 295.76496887 C59.13858312 295.83806284 57.16962429 295.9048515 55.20050049 295.96600342 C51.07052213 296.09558519 46.94212345 296.25910453 42.81332397 296.42144775 C40.75057535 296.50244994 38.68776916 296.58199956 36.62490845 296.66009521 C5.94942932 297.82645853 -24.16273058 301.72950147 -54.45825195 306.45574951 C-64.58404064 308.03521215 -74.70773114 309.58124976 -84.875 310.875 C-85.794021 310.99496338 -86.71304199 311.11492676 -87.65991211 311.23852539 C-90.10479251 311.53786548 -92.54642046 311.78472822 -95 312 C-95.70286133 312.07589355 -96.40572266 312.15178711 -97.12988281 312.22998047 C-103.9112008 312.64233689 -109.76110848 310.34686024 -116.06948853 308.06893921 C-130.1682989 303.00099869 -144.34932433 299.15140392 -159 296 C-159.95487305 295.78537109 -160.90974609 295.57074219 -161.89355469 295.34960938 C-184.88076788 290.18937366 -208.41966243 287.07415279 -231.890625 285.125 C-232.68014053 285.05914703 -233.46965607 284.99329407 -234.28309631 284.92544556 C-238.04664248 284.61683668 -241.81030572 284.33040398 -245.57788086 284.07568359 C-246.92041508 283.97500046 -248.26294464 283.87425534 -249.60546875 283.7734375 C-250.77231201 283.69528809 -251.93915527 283.61713867 -253.14135742 283.53662109 C-256 283 -256 283 -257.87695312 281.92504883 C-259.64053658 278.90203676 -259.40579047 275.82668368 -259.36328125 272.42578125 C-259.36468613 271.65186539 -259.366091 270.87794952 -259.36753845 270.08058167 C-259.36615083 267.49085598 -259.34058423 264.90206599 -259.3125 262.3125 C-259.30106292 260.46565782 -259.28967064 258.61881537 -259.27832031 256.77197266 C-258.90244382 211.78488529 -255.89728017 166.82460681 -251.72047424 122.0422821 C-250.80440935 112.10165839 -250.118466 102.14651526 -249.4375 92.1875 C-249.24849342 89.43198304 -249.05873436 86.67652758 -248.86671448 83.92121887 C-248.74915316 82.23391369 -248.63323655 80.54649265 -248.51939392 78.8589325 C-248.36018418 76.57127526 -248.18508375 74.28570305 -248 72 C-247.90357712 70.75846664 -247.90357712 70.75846664 -247.8052063 69.49185181 C-247.7316391 68.68412323 -247.6580719 67.87639465 -247.58227539 67.04418945 C-247.51883438 66.3159346 -247.45539337 65.58767975 -247.39002991 64.83735657 C-247 63 -247 63 -245 61 C-237.08889573 59.11252004 -229.0993244 58.70784 -221 59 C-220.81824219 57.13794922 -220.81824219 57.13794922 -220.6328125 55.23828125 C-220.46392452 53.59631474 -220.2946324 51.95438977 -220.125 50.3125 C-220.04636719 49.49587891 -219.96773437 48.67925781 -219.88671875 47.83789062 C-219.80292969 47.04189453 -219.71914062 46.24589844 -219.6328125 45.42578125 C-219.55949707 44.69786377 -219.48618164 43.96994629 -219.41064453 43.2199707 C-219 41 -219 41 -217 36 C-208.585 35.505 -208.585 35.505 -200 35 C-199.319375 31.844375 -199.319375 31.844375 -198.625 28.625 C-197.25 22.25 -197.25 22.25 -195 20 C-162.18324603 18.17464246 -123.45935141 41.67966088 -99.625 62.625 C-95.41832322 66.48112038 -91.62430787 70.59562586 -88 75 C-87.58041016 73.83597656 -87.58041016 73.83597656 -87.15234375 72.6484375 C-81.2504525 56.74559227 -73.87909454 41.5042021 -61 30 C-60.34 30 -59.68 30 -59 30 C-58.67 29.01 -58.34 28.02 -58 27 C-45.12047158 16.58545309 -29.51839637 7.91069688 -13.8125 2.75 C-13.03197266 2.481875 -12.25144531 2.21375 -11.44726562 1.9375 C-3.69465383 -0.64012835 -3.69465383 -0.64012835 0 0 Z " fill="#F0F0EF" transform="translate(278,21)"/>
<path d="M0 0 C1.62463842 -0.05395478 3.24978541 -0.09277195 4.875 -0.125 C6.23238281 -0.15980469 6.23238281 -0.15980469 7.6171875 -0.1953125 C10 0 10 0 12 2 C12.43660754 14.28738364 9.79408127 27.23211863 8.40283203 39.41992188 C8.01493655 42.86725477 7.64293809 46.31586273 7.27734375 49.765625 C5.48283057 66.60151106 3.15014932 83.32806342 0.69537354 100.07867432 C-1.93694691 118.0710578 -4.31947546 136.01719558 -5.90869141 154.1340332 C-7.04874472 167.01344668 -8.60274887 179.82461994 -10.2197876 192.65083313 C-10.77433877 197.08421236 -11.28952872 201.52068913 -11.77983093 205.96162415 C-12.11853686 209.02811992 -12.46648312 212.09354087 -12.81472778 215.15896606 C-12.97867943 216.62532259 -13.13815318 218.09218735 -13.29293823 219.55953979 C-13.50771645 221.59045433 -13.73978439 223.61951802 -13.97265625 225.6484375 C-14.16226929 227.38359619 -14.16226929 227.38359619 -14.35571289 229.15380859 C-15.0599844 232.26498603 -15.55673404 233.06746697 -18 235 C-19.87399292 235.42323303 -19.87399292 235.42323303 -22.01123047 235.49243164 C-22.81943237 235.52588181 -23.62763428 235.55933197 -24.46032715 235.59379578 C-25.33709106 235.61569473 -26.21385498 235.63759369 -27.1171875 235.66015625 C-28.49106628 235.7120385 -28.49106628 235.7120385 -29.8927002 235.76496887 C-31.86141688 235.83806284 -33.83037571 235.9048515 -35.79949951 235.96600342 C-39.92947787 236.09558519 -44.05787655 236.25910453 -48.18667603 236.42144775 C-50.24942465 236.50244994 -52.31223084 236.58199956 -54.37509155 236.66009521 C-85.05057068 237.82645853 -115.16273058 241.72950147 -145.45825195 246.45574951 C-155.58404064 248.03521215 -165.70773114 249.58124976 -175.875 250.875 C-176.794021 250.99496338 -177.71304199 251.11492676 -178.65991211 251.23852539 C-181.10479251 251.53786548 -183.54642046 251.78472822 -186 252 C-186.70286133 252.07589355 -187.40572266 252.15178711 -188.12988281 252.22998047 C-194.9112008 252.64233689 -200.76110848 250.34686024 -207.06948853 248.06893921 C-221.1682989 243.00099869 -235.34932433 239.15140392 -250 236 C-251.43230957 235.67805664 -251.43230957 235.67805664 -252.89355469 235.34960938 C-275.88076788 230.18937366 -299.41966243 227.07415279 -322.890625 225.125 C-324.0748983 225.02622055 -324.0748983 225.02622055 -325.28309631 224.92544556 C-329.04664248 224.61683668 -332.81030572 224.33040398 -336.57788086 224.07568359 C-337.92041508 223.97500046 -339.26294464 223.87425534 -340.60546875 223.7734375 C-341.77231201 223.69528809 -342.93915527 223.61713867 -344.14135742 223.53662109 C-347 223 -347 223 -348.87695312 221.92504883 C-350.64053658 218.90203676 -350.40579047 215.82668368 -350.36328125 212.42578125 C-350.36468613 211.65186539 -350.366091 210.87794952 -350.36753845 210.08058167 C-350.36615083 207.49085598 -350.34058423 204.90206599 -350.3125 202.3125 C-350.30106292 200.46565782 -350.28967064 198.61881537 -350.27832031 196.77197266 C-349.90244382 151.78488529 -346.89728017 106.82460681 -342.72047424 62.0422821 C-341.80440935 52.10165839 -341.118466 42.14651526 -340.4375 32.1875 C-340.24849342 29.43198304 -340.05873436 26.67652758 -339.86671448 23.92121887 C-339.74915316 22.23391369 -339.63323655 20.54649265 -339.51939392 18.8589325 C-339.36018418 16.57127526 -339.18508375 14.28570305 -339 12 C-338.93571808 11.1723111 -338.87143616 10.34462219 -338.8052063 9.49185181 C-338.6948555 8.28025894 -338.6948555 8.28025894 -338.58227539 7.04418945 C-338.51883438 6.3159346 -338.45539337 5.58767975 -338.39002991 4.83735657 C-338 3 -338 3 -336 1 C-333.875 1.375 -333.875 1.375 -332 2 C-332.33 2.66 -332.66 3.32 -333 4 C-333.21095864 5.66294738 -333.36882727 7.33277153 -333.5 9.00390625 C-333.58193604 10.04313232 -333.66387207 11.0823584 -333.74829102 12.15307617 C-333.83135498 13.27818604 -333.91441895 14.4032959 -334 15.5625 C-334.08757568 16.71532471 -334.17515137 17.86814941 -334.26538086 19.0559082 C-334.93958244 28.301832 -335.37446159 37.5469906 -335.65820312 46.81274414 C-335.68978516 47.78590576 -335.72136719 48.75906738 -335.75390625 49.76171875 C-335.77783447 50.60694092 -335.8017627 51.45216309 -335.82641602 52.32299805 C-336 55 -336 55 -336.45532227 57.9987793 C-337.31025801 63.71618316 -337.58525851 69.49338399 -337.9609375 75.2578125 C-338.04717377 76.57234406 -338.13341003 77.88687561 -338.22225952 79.24124146 C-339.24371938 95.10851776 -339.96349835 110.98921141 -340.625 126.875 C-340.65741035 127.64767464 -340.68982071 128.42034927 -340.7232132 129.21643829 C-341.60327651 150.26726211 -342.30670769 171.30330486 -342.375 192.375 C-342.38267395 193.38963318 -342.3903479 194.40426636 -342.39825439 195.449646 C-342.41546853 198.24541802 -342.41149944 201.04016333 -342.3984375 203.8359375 C-342.40437927 204.64687866 -342.41032104 205.45781982 -342.41644287 206.29333496 C-342.42154122 208.72751218 -342.42154122 208.72751218 -342 212 C-338.92444813 214.05036791 -338.22774924 214.25133337 -334.74609375 214.30859375 C-333.90183838 214.33155518 -333.05758301 214.3545166 -332.18774414 214.37817383 C-331.28016357 214.39775146 -330.37258301 214.4173291 -329.4375 214.4375 C-321.9640222 214.69849069 -314.79752541 215.34533586 -307.44946289 216.70288086 C-300.61775632 217.94885013 -293.75705275 218.85746532 -286.87005615 219.74304199 C-271.3509229 221.74186571 -256.21893785 224.33654249 -241 228 C-240.08605469 228.20109375 -239.17210937 228.4021875 -238.23046875 228.609375 C-230.77139527 230.32026738 -223.65317876 232.79655822 -216.45751953 235.36865234 C-210.42898281 237.52112779 -204.38362667 239.47746616 -198.23828125 241.2734375 C-196 242 -196 242 -195 243 C-190.5178594 242.59253267 -186.24973221 241.60586834 -181.875 240.5625 C-176.3316643 239.24842963 -170.81142223 238.29391893 -165.16796875 237.52734375 C-162.09250658 237.01539875 -159.1175142 236.28761656 -156.09985352 235.51049805 C-152.55437342 234.64855189 -148.97314428 234.03489807 -145.375 233.4375 C-144.58649658 233.30601562 -143.79799316 233.17453125 -142.9855957 233.0390625 C-137.27763323 232.12366182 -131.62419116 231.63695688 -125.8515625 231.3125 C-118.35815763 230.70451583 -110.93104028 229.49731307 -103.50024414 228.37304688 C-102.26262329 228.18838867 -102.26262329 228.18838867 -101 228 C-100.03199463 227.8342749 -99.06398926 227.6685498 -98.06665039 227.49780273 C-92.13553319 226.65804337 -86.12634838 226.56897717 -80.1484375 226.31640625 C-78.80276055 226.25591265 -77.4571085 226.19486299 -76.11148071 226.13328552 C-70.42621602 225.87365234 -64.74070881 225.62021193 -59.0546875 225.37768555 C-55.56439657 225.2284452 -52.07458167 225.07060656 -48.58491898 224.90736198 C-46.61934376 224.81792627 -44.65334105 224.73805039 -42.68734741 224.65834045 C-41.48905304 224.60165695 -40.29075867 224.54497345 -39.05615234 224.48657227 C-38.00471039 224.44073502 -36.95326843 224.39489777 -35.8699646 224.34767151 C-32.9046348 223.98844733 -30.66416619 223.34133303 -28 222 C-24.47956377 215.06154024 -24.51052604 206.03694792 -23.83691406 198.36987305 C-23.19943927 191.33780928 -22.17084151 184.40907632 -21.0625 177.4375 C-19.40266333 166.8313345 -18.33882675 156.25663321 -17.5 145.5625 C-16.5641066 133.65055725 -15.2675478 121.88439985 -13.48046875 110.06347656 C-12.31452512 102.32686206 -11.33467764 94.59174146 -10.5 86.8125 C-9.3989391 76.57475103 -8.2362802 66.3471923 -7 56.125 C-6.91478088 55.41951019 -6.82956177 54.71402039 -6.74176025 53.9871521 C-5.61553903 44.69656283 -4.38480242 35.42713193 -3.01049805 26.16967773 C-1.73724692 17.47519148 -0.84947812 8.74462767 0 0 Z " fill="#C44538" transform="translate(369,81)"/>
</svg>
