<?xml version="1.0" encoding="UTF-8"?>
<svg version="1.1" xmlns="http://www.w3.org/2000/svg" width="317" height="400">
<path d="M0 0 C4.83256305 0.41421969 6.82679218 2.46413986 10 6 C12.27238207 4.94496547 14.07464578 3.93701762 16 2.3125 C18 1 18 1 20.1875 1.1875 C22 2 22 2 23 4 C23.06950541 5.54023996 23.08452357 7.08334988 23.0625 8.625 C23.05347656 9.44226562 23.04445312 10.25953125 23.03515625 11.1015625 C23.01775391 12.04128906 23.01775391 12.04128906 23 13 C24.299375 13.144375 25.59875 13.28875 26.9375 13.4375 C30.875 13.875 30.875 13.875 32 15 C32.04063832 16.66617115 32.042721 18.33388095 32 20 C29.03 20.495 29.03 20.495 26 21 C26.33 22.65 26.66 24.3 27 26 C27.99 26 28.98 26 30 26 C30.6875 28.3125 30.6875 28.3125 31 31 C30.24976563 31.64195313 30.24976563 31.64195313 29.484375 32.296875 C27.68677765 33.97262826 27.68677765 33.97262826 28.06640625 36.77734375 C28.39679939 38.88197408 28.7301274 40.98614581 29.06640625 43.08984375 C29 46 29 46 27.19921875 48.36328125 C24.57224791 50.31834481 23.20056127 50.35561792 20 50 C20 50.99 20 51.98 20 53 C20.825 53.04125 21.65 53.0825 22.5 53.125 C30.76458175 55.19114544 35.86642699 61.81218582 40.6875 68.4375 C41.50057617 69.52514648 41.50057617 69.52514648 42.33007812 70.63476562 C45.61531324 75.04546127 48.81575509 79.51606329 52 84 C52.44730469 83.27554688 52.89460937 82.55109375 53.35546875 81.8046875 C56.63021416 76.5678878 59.88681582 71.61175196 64 67 C63.22914063 66.67386719 62.45828125 66.34773438 61.6640625 66.01171875 C60.66117188 65.57472656 59.65828125 65.13773437 58.625 64.6875 C57.12839844 64.04361328 57.12839844 64.04361328 55.6015625 63.38671875 C53 62 53 62 51 59 C51.125 56.4375 51.125 56.4375 52 54 C56.73198502 50.85948976 61.6867828 51.96031074 67 53 C76.06162584 55.84956787 86.01693742 60.51033783 91 69 C94.59769319 80.1982252 95.20062844 91.1422982 95.25 102.8125 C95.2809375 104.62331055 95.2809375 104.62331055 95.3125 106.47070312 C95.37010506 119.78467244 92.70456351 130.24543811 83.375 139.9375 C79.44270468 143.71544354 75.26657992 147.15368526 71.00390625 150.55078125 C68.83162908 152.32193572 66.73475243 154.10995218 64.65234375 155.98046875 C64.08604248 156.48215576 63.51974121 156.98384277 62.9362793 157.50073242 C61.84027537 158.47518734 60.75383419 159.46054365 59.67895508 160.45825195 C55.88658044 163.79681759 53.03135382 164.85754944 48 165 C45.12890625 164.44140625 45.12890625 164.44140625 42.5625 163.5625 C41.69753906 163.27503906 40.83257812 162.98757812 39.94140625 162.69140625 C39.30074219 162.46324219 38.66007813 162.23507813 38 162 C38 163.32 38 164.64 38 166 C36.68 166.33 35.36 166.66 34 167 C41.45633106 181.14536643 41.45633106 181.14536643 50.21484375 194.4921875 C52.49837242 197.70012055 54.55649313 201.02573686 56.625 204.375 C64.59788901 217.24977356 72.90878205 229.90696081 81.33203125 242.49072266 C88.46462003 253.16363767 95.40876028 263.95638946 102.13818359 274.88793945 C104.43392435 278.58958124 106.81268079 282.21192312 109.29296875 285.79296875 C110.12356812 287.0006189 110.12356812 287.0006189 110.97094727 288.23266602 C112.04927592 289.79230328 113.13912308 291.34405815 114.24194336 292.88647461 C117.08253857 297.00512747 118.89882651 299.80508744 118 305 C117.34 305.99 116.68 306.98 116 308 C117.72226496 311.24849977 117.72226496 311.24849977 121 312 C121 311.34 121 310.68 121 310 C139.86780707 301.64391086 139.86780707 301.64391086 150 305 C151.3515625 307.0703125 151.3515625 307.0703125 152 309 C153.32 308.67 154.64 308.34 156 308 C156.86658615 309.26239712 157.71792059 310.53527501 158.5625 311.8125 C159.03816406 312.52019531 159.51382812 313.22789062 160.00390625 313.95703125 C161 316 161 316 160 319 C157.85046144 320.64498026 155.71977698 322.13944519 153.45703125 323.61328125 C152.44863945 324.28352829 152.44863945 324.28352829 151.4198761 324.96731567 C149.22287687 326.42416943 147.01816873 327.86881175 144.8125 329.3125 C143.30622996 330.3050438 141.80020854 331.29796502 140.29443359 332.29125977 C136.55976644 334.75099663 132.81762685 337.19910391 129.07318115 339.6439209 C127.15606733 340.89791551 125.24243917 342.15697919 123.33056641 343.41894531 C120.2694618 345.43680958 117.19976353 347.44053232 114.125 349.4375 C113.23014893 350.02764893 112.33529785 350.61779785 111.41333008 351.22583008 C110.59888428 351.74814209 109.78443848 352.2704541 108.9453125 352.80859375 C107.90141357 353.48619751 107.90141357 353.48619751 106.83642578 354.17749023 C105 355 105 355 102 354 C100.52734375 352.05859375 100.52734375 352.05859375 98.9375 349.4375 C98.03644531 347.97183594 98.03644531 347.97183594 97.1171875 346.4765625 C96.78557617 345.93032227 96.45396484 345.38408203 96.11230469 344.82128906 C94.41066226 342.03501765 92.67216402 339.2720484 90.93774414 336.50610352 C88.95323303 333.34067971 86.97689176 330.17018659 85 327 C84.09507812 327.19529297 84.09507812 327.19529297 83.171875 327.39453125 C80.72293388 327.81717109 78.48534458 328.08314175 76 328 C73.78515625 326.109375 73.78515625 326.109375 72 323 C71.12719276 321.64877779 70.25054757 320.30003068 69.37109375 318.953125 C68.39053042 317.38710325 67.41280925 315.81929934 66.4375 314.25 C65.36535405 312.53857943 64.29242137 310.8276515 63.21875 309.1171875 C62.67992187 308.25834961 62.14109375 307.39951172 61.5859375 306.51464844 C59.23215841 302.78251718 56.83939327 299.07629237 54.4375 295.375 C53.98745605 294.68100098 53.53741211 293.98700195 53.07373047 293.27197266 C51.7166941 291.18074606 50.35855728 289.09023881 49 287 C42.76273609 277.40351753 36.58175676 267.77595361 30.48291016 258.09082031 C25.85097832 250.74382465 21.13924821 243.45027734 16.40722656 236.16748047 C13.87074427 232.26066406 11.34219818 228.34871109 8.8125 224.4375 C7.88154266 222.99867705 6.95055622 221.55987294 6.01953125 220.12109375 C5.35308594 219.09113281 4.68664062 218.06117188 4 217 C1.57451489 222.8455206 1.37061308 228.76317167 0.9375 235 C-0.00839209 247.94543225 -0.00839209 247.94543225 -1 253 C-1.66 253 -2.32 253 -3 253 C-3.0825 254.093125 -3.165 255.18625 -3.25 256.3125 C-5.41822137 273.50557929 -16.79176156 283.2514906 -29.6875 293.3125 C-30.8735741 294.23062873 -32.0597749 295.14859379 -33.24609375 296.06640625 C-36.60361355 298.67148585 -39.89471793 301.35123177 -43.17773438 304.04931641 C-48.29060683 308.24538963 -53.4120091 312.44756706 -58.6875 316.4375 C-59.41324219 316.99308594 -60.13898438 317.54867188 -60.88671875 318.12109375 C-63 319 -63 319 -65.625 318.32421875 C-68.55042868 316.6930998 -70.07505806 314.70917754 -72 312 C-73.32 312.99 -74.64 313.98 -76 315 C-74.87661755 319.85370845 -72.91102067 324.39315493 -70.99609375 328.98046875 C-69.2391651 333.44424441 -68.81185697 336.21268685 -70 341 C-69.938125 342.051875 -69.87625 343.10375 -69.8125 344.1875 C-69.874375 345.115625 -69.93625 346.04375 -70 347 C-71.9375 348.625 -71.9375 348.625 -74 350 C-74.103125 350.639375 -74.20625 351.27875 -74.3125 351.9375 C-75.17620703 354.52862109 -76.07395141 354.91938081 -78.375 356.3125 C-82 358 -82 358 -85 357 C-86.47949219 355.04833984 -86.47949219 355.04833984 -88.046875 352.4609375 C-88.63742676 351.49865234 -89.22797852 350.53636719 -89.83642578 349.54492188 C-90.78364502 347.97581055 -90.78364502 347.97581055 -91.75 346.375 C-93.09433007 344.18365282 -94.44074215 341.99358175 -95.7890625 339.8046875 C-96.13407806 339.24315979 -96.47909363 338.68163208 -96.83456421 338.10308838 C-101.08500135 331.2034104 -105.53785509 324.43769696 -109.98730469 317.66552734 C-111.13433708 315.91840658 -112.27840987 314.1693377 -113.41894531 312.41796875 C-114.45792017 310.82902388 -115.50905465 309.24795155 -116.57324219 307.67578125 C-117.04149414 306.96808594 -117.50974609 306.26039063 -117.9921875 305.53125 C-118.40581543 304.91830078 -118.81944336 304.30535156 -119.24560547 303.67382812 C-120 302 -120 302 -119 299 C-116.91455078 297.421875 -116.91455078 297.421875 -114.1953125 295.75 C-113.21949219 295.1415625 -112.24367188 294.533125 -111.23828125 293.90625 C-110.21089844 293.2771875 -109.18351562 292.648125 -108.125 292 C-106.10459042 290.75352734 -104.0862678 289.5036639 -102.0703125 288.25 C-101.17070801 287.69828125 -100.27110352 287.1465625 -99.34423828 286.578125 C-97.2567685 285.17285478 -95.58033338 283.95200557 -94 282 C-93.9071875 280.58267578 -93.9071875 280.58267578 -93.8125 279.13671875 C-92.89324141 275.58785023 -92.49354611 275.29751294 -89.5625 273.39453125 C-88.05253547 272.51492555 -86.53078052 271.65535827 -85 270.8125 C-83.36075855 269.86147583 -81.72276896 268.90829111 -80.0859375 267.953125 C-79.24514648 267.46908203 -78.40435547 266.98503906 -77.53808594 266.48632812 C-73.4970089 264.11983361 -69.55817105 261.60310424 -65.625 259.0625 C-64.91859375 258.61430908 -64.2121875 258.16611816 -63.484375 257.7043457 C-56.3540532 253.10830535 -53.21679874 249.39797911 -51 241 C-49.95555437 235.59958247 -49.14383332 230.17048147 -48.3359375 224.73046875 C-48.09674319 223.16096313 -47.85679076 221.59157289 -47.61611938 220.02229309 C-46.98826423 215.9166357 -46.36953136 211.80965856 -45.75311279 207.70227051 C-44.76213431 201.1114238 -43.75604832 194.52285999 -42.75206375 187.93398476 C-42.40350089 185.63880957 -42.05815981 183.3431688 -41.71347046 181.04740906 C-41.50090716 179.64122029 -41.28831319 178.23503616 -41.07568359 176.82885742 C-40.891539 175.60357834 -40.70739441 174.37829926 -40.51766968 173.1158905 C-40 170 -40 170 -39 166 C-41.97 166 -44.94 166 -48 166 C-47.78601563 164.70964844 -47.57203125 163.41929687 -47.3515625 162.08984375 C-47.10758942 160.37264858 -46.8655012 158.65518487 -46.625 156.9375 C-46.40650391 155.66616211 -46.40650391 155.66616211 -46.18359375 154.36914062 C-45.50176139 149.45491889 -45.50176139 149.45491889 -47.24926758 144.96411133 C-48.82535619 143.13643872 -48.82535619 143.13643872 -50.52514648 141.59082031 C-54.01127337 137.83058148 -54.0422772 132.71645418 -53.921875 127.828125 C-53.33659218 119.67318436 -53.33659218 119.67318436 -52 117 C-53.65 117 -55.3 117 -57 117 C-57.29386502 112.01925338 -56.25363885 107.96575382 -54.62109375 103.3203125 C-54.37134293 102.58988739 -54.1215921 101.85946228 -53.86427307 101.10690308 C-53.33314336 99.56062242 -52.79747609 98.01589385 -52.25756836 96.47265625 C-51.45342003 94.17057518 -50.6659991 91.86331025 -49.88085938 89.5546875 C-47.27548271 81.97079376 -44.4880421 74.48656278 -41.33203125 67.11328125 C-40.91587807 66.12311508 -40.91587807 66.12311508 -40.49131775 65.11294556 C-38.19231851 59.88347185 -35.79393765 57.04230659 -31 54 C-27.94080612 52.98026871 -25.87581975 52.88466398 -22.67578125 52.90234375 C-21.64775391 52.90556641 -20.61972656 52.90878906 -19.56054688 52.91210938 C-17.95276367 52.92467773 -17.95276367 52.92467773 -16.3125 52.9375 C-14.68731445 52.94426758 -14.68731445 52.94426758 -13.02929688 52.95117188 C-10.35280915 52.96296257 -7.67643223 52.97941937 -5 53 C-3.7072788 40.71072129 -3.7072788 40.71072129 -7 29 C-7.24614311 26.27349167 -7.14698843 23.74378403 -7 21 C-8.98 20.67 -10.96 20.34 -13 20 C-13.1875 17.625 -13.1875 17.625 -13 15 C-9.3558226 12.5705484 -7.28758728 12.83820425 -3 13 C-2.92652344 11.96939453 -2.92652344 11.96939453 -2.8515625 10.91796875 C-2.77679688 10.01691406 -2.70203125 9.11585937 -2.625 8.1875 C-2.55539063 7.29417969 -2.48578125 6.40085937 -2.4140625 5.48046875 C-2 3 -2 3 0 0 Z " fill="#06A0E4" transform="translate(138,21)"/>
<path d="M0 0 C4.83256305 0.41421969 6.82679218 2.46413986 10 6 C12.27238207 4.94496547 14.07464578 3.93701762 16 2.3125 C18 1 18 1 20.1875 1.1875 C22 2 22 2 23 4 C23.06950541 5.54023996 23.08452357 7.08334988 23.0625 8.625 C23.05347656 9.44226562 23.04445313 10.25953125 23.03515625 11.1015625 C23.02355469 11.72804688 23.01195312 12.35453125 23 13 C24.299375 13.144375 25.59875 13.28875 26.9375 13.4375 C30.875 13.875 30.875 13.875 32 15 C32.04063832 16.66617115 32.042721 18.33388095 32 20 C30.02 20.33 28.04 20.66 26 21 C26.495 23.475 26.495 23.475 27 26 C27.99 26 28.98 26 30 26 C30.6875 28.3125 30.6875 28.3125 31 31 C30.24976563 31.64195313 30.24976563 31.64195313 29.484375 32.296875 C27.68677765 33.97262826 27.68677765 33.97262826 28.06640625 36.77734375 C28.39679939 38.88197408 28.7301274 40.98614581 29.06640625 43.08984375 C29 46 29 46 27.19921875 48.36328125 C24.57224791 50.31834481 23.20056127 50.35561792 20 50 C20 50.99 20 51.98 20 53 C20.825 53.04125 21.65 53.0825 22.5 53.125 C30.76458175 55.19114544 35.86642699 61.81218582 40.6875 68.4375 C41.50057617 69.52514648 41.50057617 69.52514648 42.33007812 70.63476562 C45.61531324 75.04546127 48.81575509 79.51606329 52 84 C52.44730469 83.27554688 52.89460938 82.55109375 53.35546875 81.8046875 C56.63021416 76.5678878 59.88681582 71.61175196 64 67 C63.22914063 66.67386719 62.45828125 66.34773438 61.6640625 66.01171875 C60.66117187 65.57472656 59.65828125 65.13773437 58.625 64.6875 C57.12839844 64.04361328 57.12839844 64.04361328 55.6015625 63.38671875 C53 62 53 62 51 59 C51.125 56.4375 51.125 56.4375 52 54 C56.73198502 50.85948976 61.6867828 51.96031074 67 53 C76.06162584 55.84956787 86.01693742 60.51033783 91 69 C94.59769319 80.1982252 95.20062844 91.1422982 95.25 102.8125 C95.2809375 104.62331055 95.2809375 104.62331055 95.3125 106.47070312 C95.37010506 119.78467244 92.70456351 130.24543811 83.375 139.9375 C79.44270468 143.71544354 75.26657992 147.15368526 71.00390625 150.55078125 C68.83162908 152.32193572 66.73475243 154.10995218 64.65234375 155.98046875 C64.08604248 156.48215576 63.51974121 156.98384277 62.9362793 157.50073242 C61.84027537 158.47518734 60.75383419 159.46054365 59.67895508 160.45825195 C55.88658044 163.79681759 53.03135382 164.85754944 48 165 C45.12890625 164.44140625 45.12890625 164.44140625 42.5625 163.5625 C41.69753906 163.27503906 40.83257812 162.98757812 39.94140625 162.69140625 C39.30074219 162.46324219 38.66007812 162.23507813 38 162 C38 163.32 38 164.64 38 166 C9.62 166 -18.76 166 -48 166 C-47.34 159.73 -46.68 153.46 -46 147 C-47.98 144.69 -49.96 142.38 -52 140 C-54.438064 132.89781358 -54.14054995 126.38477291 -53 119 C-52.505 118.01 -52.505 118.01 -52 117 C-53.65 117 -55.3 117 -57 117 C-57.29386502 112.01925338 -56.25363885 107.96575382 -54.62109375 103.3203125 C-54.37134293 102.58988739 -54.1215921 101.85946228 -53.86427307 101.10690308 C-53.33314336 99.56062242 -52.79747609 98.01589385 -52.25756836 96.47265625 C-51.45342003 94.17057518 -50.6659991 91.86331025 -49.88085938 89.5546875 C-47.27548271 81.97079376 -44.4880421 74.48656278 -41.33203125 67.11328125 C-41.05459579 66.45317047 -40.77716034 65.79305969 -40.49131775 65.11294556 C-38.19231851 59.88347185 -35.79393765 57.04230659 -31 54 C-27.94080612 52.98026871 -25.87581975 52.88466398 -22.67578125 52.90234375 C-21.64775391 52.90556641 -20.61972656 52.90878906 -19.56054688 52.91210938 C-17.95276367 52.92467773 -17.95276367 52.92467773 -16.3125 52.9375 C-15.22904297 52.94201172 -14.14558594 52.94652344 -13.02929688 52.95117188 C-10.35280915 52.96296257 -7.67643223 52.97941937 -5 53 C-3.7072788 40.71072129 -3.7072788 40.71072129 -7 29 C-7.24614311 26.27349167 -7.14698843 23.74378403 -7 21 C-8.98 20.67 -10.96 20.34 -13 20 C-13.1875 17.625 -13.1875 17.625 -13 15 C-9.3558226 12.5705484 -7.28758728 12.83820425 -3 13 C-2.95101562 12.31292969 -2.90203125 11.62585937 -2.8515625 10.91796875 C-2.77679688 10.01691406 -2.70203125 9.11585937 -2.625 8.1875 C-2.55539063 7.29417969 -2.48578125 6.40085937 -2.4140625 5.48046875 C-2 3 -2 3 0 0 Z " fill="#F8A8B2" transform="translate(138,21)"/>
<path d="M0 0 C2.27126455 3.40689682 2.33472756 5.10263559 2.5625 9.125 C2.46334775 12.87914167 2.46334775 12.87914167 4 16 C11.19480129 16.49619319 17.7491479 15.1820041 24.7421875 13.65625 C28 13 28 13 31 13 C30.67664583 28.31081979 30.04435787 43.76916053 18.7265625 55.3203125 C12.70514818 60.95324847 6.27019672 66.02606927 -0.24609375 71.06640625 C-3.60361355 73.67148585 -6.89471793 76.35123177 -10.17773438 79.04931641 C-15.29060683 83.24538963 -20.4120091 87.44756706 -25.6875 91.4375 C-26.41324219 91.99308594 -27.13898438 92.54867187 -27.88671875 93.12109375 C-30 94 -30 94 -32.625 93.32421875 C-35.55042868 91.6930998 -37.07505806 89.70917754 -39 87 C-40.32 87.99 -41.64 88.98 -43 90 C-41.87661755 94.85370845 -39.91102067 99.39315493 -37.99609375 103.98046875 C-36.2391651 108.44424441 -35.81185697 111.21268685 -37 116 C-36.938125 117.051875 -36.87625 118.10375 -36.8125 119.1875 C-36.874375 120.115625 -36.93625 121.04375 -37 122 C-38.9375 123.625 -38.9375 123.625 -41 125 C-41.103125 125.639375 -41.20625 126.27875 -41.3125 126.9375 C-42.17620703 129.52862109 -43.07395141 129.91938081 -45.375 131.3125 C-49 133 -49 133 -52 132 C-53.47949219 130.04833984 -53.47949219 130.04833984 -55.046875 127.4609375 C-55.63742676 126.49865234 -56.22797852 125.53636719 -56.83642578 124.54492188 C-57.46790527 123.49884766 -58.09938477 122.45277344 -58.75 121.375 C-60.09433007 119.18365282 -61.44074215 116.99358175 -62.7890625 114.8046875 C-63.13407806 114.24315979 -63.47909363 113.68163208 -63.83456421 113.10308838 C-68.08500135 106.2034104 -72.53785509 99.43769696 -76.98730469 92.66552734 C-78.13433708 90.91840658 -79.27840987 89.1693377 -80.41894531 87.41796875 C-81.45792017 85.82902388 -82.50905465 84.24795155 -83.57324219 82.67578125 C-84.04149414 81.96808594 -84.50974609 81.26039063 -84.9921875 80.53125 C-85.61262939 79.61182617 -85.61262939 79.61182617 -86.24560547 78.67382812 C-87 77 -87 77 -86 74 C-83.91455078 72.421875 -83.91455078 72.421875 -81.1953125 70.75 C-80.21949219 70.1415625 -79.24367188 69.533125 -78.23828125 68.90625 C-76.69720703 67.96265625 -76.69720703 67.96265625 -75.125 67 C-73.10459042 65.75352734 -71.0862678 64.5036639 -69.0703125 63.25 C-67.72090576 62.42242187 -67.72090576 62.42242187 -66.34423828 61.578125 C-64.2567685 60.17285478 -62.58033338 58.95200557 -61 57 C-60.938125 56.05511719 -60.87625 55.11023438 -60.8125 54.13671875 C-59.89324141 50.58785023 -59.49354611 50.29751294 -56.5625 48.39453125 C-55.05253547 47.51492555 -53.53078052 46.65535827 -52 45.8125 C-50.36075855 44.86147583 -48.72276896 43.90829111 -47.0859375 42.953125 C-46.24514648 42.46908203 -45.40435547 41.98503906 -44.53808594 41.48632812 C-40.4970089 39.11983361 -36.55817105 36.60310424 -32.625 34.0625 C-31.91859375 33.61430908 -31.2121875 33.16611816 -30.484375 32.7043457 C-23.33747338 28.09761838 -20.0138145 24.31741137 -18 16 C-17.21856284 11.68025422 -16.57176658 7.35215268 -16 3 C-14.27709395 2.29695778 -12.54632534 1.61316509 -10.8125 0.9375 C-9.84957031 0.55464844 -8.88664062 0.17179688 -7.89453125 -0.22265625 C-4.73480087 -1.07122082 -3.06665428 -1.09636863 0 0 Z " fill="#06A0E4" transform="translate(105,246)"/>
<path d="M0 0 C4.84047193 1.85925412 6.74634537 5.70218379 9.51171875 9.8828125 C12.67565704 12.57489186 14.33472135 12.51936045 18.37133789 12.29199219 C23.40749797 11.73257476 28.38578945 10.94276975 33.375 10.0625 C34.45394531 9.88009766 35.53289062 9.69769531 36.64453125 9.50976562 C42.39275315 8.54515033 42.39275315 8.54515033 48 7 C53.45729611 5.9722493 58.4598397 5.39865597 64 6 C67.59189409 8.61896196 69.05057708 12.07666392 71 16 C72.04544653 17.63972127 73.09205459 19.27895282 74.16748047 20.89916992 C76.98843931 25.15105863 79.6856884 29.48434863 82.375 33.8203125 C82.77501221 34.46484375 83.17502441 35.109375 83.5871582 35.7734375 C84.40503883 37.09273648 85.22127963 38.41305345 86.03588867 39.734375 C88.3692887 43.49029254 90.78290534 47.16945411 93.30078125 50.8046875 C93.85338623 51.6080957 94.40599121 52.41150391 94.9753418 53.23925781 C96.05207425 54.79643253 97.14032492 56.34572327 98.24145508 57.88574219 C101.08221268 62.00467726 102.89888903 64.80472612 102 70 C101.34 70.99 100.68 71.98 100 73 C101.72226496 76.24849977 101.72226496 76.24849977 105 77 C105 76.34 105 75.68 105 75 C123.86780707 66.64391086 123.86780707 66.64391086 134 70 C135.3515625 72.0703125 135.3515625 72.0703125 136 74 C137.32 73.67 138.64 73.34 140 73 C140.86658615 74.26239712 141.71792059 75.53527501 142.5625 76.8125 C143.03816406 77.52019531 143.51382813 78.22789062 144.00390625 78.95703125 C145 81 145 81 144 84 C141.85046144 85.64498026 139.71977698 87.13944519 137.45703125 88.61328125 C136.78477005 89.06011261 136.11250885 89.50694397 135.4198761 89.96731567 C133.22287687 91.42416943 131.01816873 92.86881175 128.8125 94.3125 C127.30622996 95.3050438 125.80020854 96.29796502 124.29443359 97.29125977 C120.55976644 99.75099663 116.81762685 102.19910391 113.07318115 104.6439209 C111.15606733 105.89791551 109.24243917 107.15697919 107.33056641 108.41894531 C104.2694618 110.43680958 101.19976353 112.44053232 98.125 114.4375 C97.23014893 115.02764893 96.33529785 115.61779785 95.41333008 116.22583008 C94.59888428 116.74814209 93.78443848 117.2704541 92.9453125 117.80859375 C92.24937988 118.26032959 91.55344727 118.71206543 90.83642578 119.17749023 C89 120 89 120 86 119 C84.52734375 117.05859375 84.52734375 117.05859375 82.9375 114.4375 C82.33679688 113.46039063 81.73609375 112.48328125 81.1171875 111.4765625 C80.78557617 110.93032227 80.45396484 110.38408203 80.11230469 109.82128906 C78.41066226 107.03501765 76.67216402 104.2720484 74.93774414 101.50610352 C72.95323303 98.34067971 70.97689176 95.17018659 69 92 C68.39671875 92.13019531 67.7934375 92.26039063 67.171875 92.39453125 C64.72293388 92.81717109 62.48534458 93.08314175 60 93 C57.78515625 91.109375 57.78515625 91.109375 56 88 C55.12719276 86.64877779 54.25054757 85.30003068 53.37109375 83.953125 C52.39053042 82.38710325 51.41280925 80.81929934 50.4375 79.25 C49.36535405 77.53857943 48.29242137 75.8276515 47.21875 74.1171875 C46.67992187 73.25834961 46.14109375 72.39951172 45.5859375 71.51464844 C43.23215841 67.78251718 40.83939327 64.07629237 38.4375 60.375 C37.98745605 59.68100098 37.53741211 58.98700195 37.07373047 58.27197266 C35.7166941 56.18074606 34.35855728 54.09023881 33 52 C26.74187628 42.3714232 20.544197 32.71034248 14.43676758 22.98535156 C10.7094192 17.07102297 6.87413303 11.23682047 2.94506836 5.45458984 C0 1.10069247 0 1.10069247 0 0 Z " fill="#06A0E4" transform="translate(154,256)"/>
<path d="M0 0 C1.65 0.33 3.3 0.66 5 1 C5 5.95 5 10.9 5 16 C6.62808594 14.9171875 6.62808594 14.9171875 8.2890625 13.8125 C9.73391175 12.8742862 11.17925026 11.93682558 12.625 11 C13.33785156 10.52304688 14.05070312 10.04609375 14.78515625 9.5546875 C19.0064119 6.84378938 21.80601001 5.34460694 27 6 C27.495 8.475 27.495 8.475 28 11 C26.29592618 12.27653929 24.58652649 13.5459704 22.875 14.8125 C21.44800781 15.87404297 21.44800781 15.87404297 19.9921875 16.95703125 C12.60611855 22 12.60611855 22 9 22 C9 22.66 9 23.32 9 24 C11.20992759 22.7527532 13.41793663 21.50229753 15.625 20.25 C16.24246094 19.90195313 16.85992187 19.55390625 17.49609375 19.1953125 C20.5302395 17.47064018 23.43818979 15.70932573 26.2734375 13.671875 C27.17320312 13.12015625 28.07296875 12.5684375 29 12 C29.99 12.33 30.98 12.66 32 13 C32 13.99 32 14.98 32 16 C18.54511971 29 18.54511971 29 12 29 C12 29.66 12 30.32 12 31 C18.51626359 27.72988978 24.16590502 24.38742594 29.44140625 19.3203125 C31 18 31 18 33 18 C33.2890625 20.73828125 33.2890625 20.73828125 33 24 C31.0234375 26.23046875 31.0234375 26.23046875 28.375 28.1875 C27.46492188 28.86167969 26.55484375 29.53585938 25.6171875 30.23046875 C18.56291391 35 18.56291391 35 15 35 C15 35.66 15 36.32 15 37 C20.688555 34.01126708 26.05693042 31.14580029 31 27 C31.66 27 32.32 27 33 27 C32.34855775 32.53725912 29.91118503 34.52400539 25.71875 37.93359375 C24.37296875 38.95646484 24.37296875 38.95646484 23 40 C22.1853125 40.67160156 21.370625 41.34320313 20.53125 42.03515625 C9.16693534 49.80821979 -5.76431335 48.10394863 -19 48 C-18.39937744 48.176521 -17.79875488 48.35304199 -17.17993164 48.53491211 C-14.47312842 49.33245 -11.76780837 50.13490682 -9.0625 50.9375 C-8.11697266 51.21529297 -7.17144531 51.49308594 -6.19726562 51.77929688 C-4.84858398 52.18051758 -4.84858398 52.18051758 -3.47265625 52.58984375 C-2.64000244 52.83597412 -1.80734863 53.08210449 -0.94946289 53.33569336 C1 54 1 54 2 55 C2 56.65 2 58.3 2 60 C-26.38 60 -54.76 60 -84 60 C-83.34 53.73 -82.68 47.46 -82 41 C-84.97 37.535 -84.97 37.535 -88 34 C-90.34153059 27.0772139 -89.99313623 21.18010656 -89 14 C-70.60162034 12.32470039 -52.36893624 12.25076123 -34.07495117 14.91723633 C-28.31017491 15.7432296 -22.63877099 16.35071277 -16.8125 16.4375 C-14.96591797 16.46650391 -14.96591797 16.46650391 -13.08203125 16.49609375 C-9.31050281 15.8890163 -8.26778942 15.03049887 -6 12 C-4.50734186 9.24811294 -4.50734186 9.24811294 -3.3125 6.3125 C-1.06944444 1.06944444 -1.06944444 1.06944444 0 0 Z " fill="#FBAEC9" transform="translate(174,127)"/>
<path d="M0 0 C0.66 0 1.32 0 2 0 C2.92900731 2.78702194 3.25741066 4.96197994 3.49829102 7.86743164 C3.58063995 8.84994904 3.66298889 9.83246643 3.74783325 10.84475708 C3.83104828 11.88598724 3.91426331 12.92721741 4 14 C4.08555145 15.02358612 4.17110291 16.04717224 4.25924683 17.10177612 C4.84110454 24.23736886 5.30013654 31.37562211 5.69897461 38.52368164 C5.85799063 41.13287908 6.04388527 43.74057717 6.2565918 46.34594727 C8.09978969 69.2538515 8.09978969 69.2538515 3.09692383 75.27734375 C0.26731316 77.96285621 -2.79296533 80.01469746 -6.18608093 81.9206543 C-9.13250908 83.67388277 -11.59497339 85.88714244 -14.1875 88.125 C-21.40163671 94.03042525 -21.40163671 94.03042525 -25.6875 93.8125 C-29.22032489 93.3809541 -32.33970453 92.14654919 -35.64770508 90.87133789 C-40.20801077 89.18210789 -44.86168141 87.77034423 -49.5 86.3125 C-50.51320312 85.99216797 -51.52640625 85.67183594 -52.5703125 85.34179688 C-55.04628208 84.55929706 -57.52284703 83.77874378 -60 83 C-60 82.67 -60 82.34 -60 82 C-59.14470703 82.01683838 -58.28941406 82.03367676 -57.40820312 82.05102539 C-38.81747853 82.29004184 -23.91081758 82.36433642 -9.66015625 68.94921875 C-7.17254869 66.19129848 -6.62567155 65.40389124 -6 62 C-6.78375 62.53625 -7.5675 63.0725 -8.375 63.625 C-11.29363283 65.5661003 -14.2597661 67.42119028 -17.25 69.25 C-18.10078125 69.77078125 -18.9515625 70.2915625 -19.828125 70.828125 C-22 72 -22 72 -24 72 C-24 71.34 -24 70.68 -24 70 C-22.865625 69.484375 -21.73125 68.96875 -20.5625 68.4375 C-15.66134131 65.96066445 -10.70299915 63.10003844 -7 59 C-6.18931844 55.87163686 -6.18931844 55.87163686 -6 53 C-6.86882812 53.68707031 -7.73765625 54.37414062 -8.6328125 55.08203125 C-9.796661 55.99246113 -10.96073559 56.90260205 -12.125 57.8125 C-12.69476563 58.26431641 -13.26453125 58.71613281 -13.8515625 59.18164062 C-22.61091469 66 -22.61091469 66 -27 66 C-27 65.34 -27 64.68 -27 64 C-25.88625 63.525625 -24.7725 63.05125 -23.625 62.5625 C-18.6952694 60.14165015 -15.03739334 56.60554779 -11.1015625 52.828125 C-9 51 -9 51 -7 51 C-7.33 50.01 -7.66 49.02 -8 48 C-12.85849535 49.73452825 -16.95414707 52.37824925 -21.27148438 55.16601562 C-24.13201684 56.97601336 -26.62820094 58.46413951 -30 59 C-30 58.34 -30 57.68 -30 57 C-29.28714844 56.62488281 -28.57429688 56.24976563 -27.83984375 55.86328125 C-19.55537286 51.48366073 -19.55537286 51.48366073 -12 46 C-12 44.68 -12 43.36 -12 42 C-17.30761351 41.49413063 -20.41364044 43.04038778 -24.6875 45.9375 C-30.73408294 49.91136098 -30.73408294 49.91136098 -34 51 C-34.33 46.05 -34.66 41.1 -35 36 C-37.475 36.495 -37.475 36.495 -40 37 C-41.55638129 39.64929285 -41.55638129 39.64929285 -42.5625 42.875 C-44.24098566 47.69556436 -44.71860144 48.78895108 -49 52 C-53.95 52 -58.9 52 -64 52 C-64 36.16 -64 20.32 -64 4 C-54.98316396 5.1271045 -54.98316396 5.1271045 -51.95703125 6.53125 C-51.2818042 6.84320313 -50.60657715 7.15515625 -49.91088867 7.4765625 C-49.21842041 7.81429687 -48.52595215 8.15203125 -47.8125 8.5 C-47.08071533 8.84804687 -46.34893066 9.19609375 -45.5949707 9.5546875 C-39.4759931 12.55923935 -34.06027425 16.20143104 -28.63671875 20.3125 C-25.96023338 22.35936913 -25.96023338 22.35936913 -22 22 C-21.34 21.01 -20.68 20.02 -20 19 C-19.01 19 -18.02 19 -17 19 C-16.505 17.515 -16.505 17.515 -16 16 C-14.3984375 14.67578125 -14.3984375 14.67578125 -12.375 13.3125 C-7.49701377 9.80562341 -2.72146882 5.44293764 0 0 Z " fill="#FB5B4E" transform="translate(213,92)"/>
<path d="M0 0 C9.44360419 0.30962637 15.91314368 4.20000924 23.6015625 9.43359375 C24.21749268 9.84738281 24.83342285 10.26117188 25.46801758 10.6875 C26.67475033 11.50529903 27.87059476 12.33945971 29.0534668 13.19140625 C31.82258419 15.07894838 33.62287053 15.99852875 37.00390625 16.01171875 C41.24585292 14.5793013 44.67074729 12.22136304 48.3203125 9.70703125 C52.45962232 6.98328729 52.45962232 6.98328729 55.2734375 7.0703125 C57 8 57 8 59 11 C59.99 11.33 60.98 11.66 62 12 C62 11.34 62 10.68 62 10 C80.86780707 1.64391086 80.86780707 1.64391086 91 5 C92.3515625 7.0703125 92.3515625 7.0703125 93 9 C94.32 8.67 95.64 8.34 97 8 C97.86658615 9.26239712 98.71792059 10.53527501 99.5625 11.8125 C100.03816406 12.52019531 100.51382813 13.22789062 101.00390625 13.95703125 C102 16 102 16 101 19 C98.85046144 20.64498026 96.71977698 22.13944519 94.45703125 23.61328125 C93.78477005 24.06011261 93.11250885 24.50694397 92.4198761 24.96731567 C90.22287687 26.42416943 88.01816873 27.86881175 85.8125 29.3125 C84.30622996 30.3050438 82.80020854 31.29796502 81.29443359 32.29125977 C77.55976644 34.75099663 73.81762685 37.19910391 70.07318115 39.6439209 C68.15606733 40.89791551 66.24243917 42.15697919 64.33056641 43.41894531 C61.2694618 45.43680958 58.19976353 47.44053232 55.125 49.4375 C54.23014893 50.02764893 53.33529785 50.61779785 52.41333008 51.22583008 C51.59888428 51.74814209 50.78443848 52.2704541 49.9453125 52.80859375 C49.24937988 53.26032959 48.55344727 53.71206543 47.83642578 54.17749023 C46 55 46 55 43 54 C41.52734375 52.05859375 41.52734375 52.05859375 39.9375 49.4375 C39.33679688 48.46039063 38.73609375 47.48328125 38.1171875 46.4765625 C37.78557617 45.93032227 37.45396484 45.38408203 37.11230469 44.82128906 C35.41066226 42.03501765 33.67216402 39.2720484 31.93774414 36.50610352 C29.95323303 33.34067971 27.97689176 30.17018659 26 27 C25.39671875 27.13019531 24.7934375 27.26039063 24.171875 27.39453125 C21.72424092 27.81694552 19.48400229 28.07967605 17 28 C14.82421875 26.16015625 14.82421875 26.16015625 13 23 C12.01039036 21.49613756 11.01649545 19.99509071 10.01953125 18.49609375 C8.94731337 16.81193357 7.87837973 15.12567863 6.8125 13.4375 C6.26658203 12.58736328 5.72066406 11.73722656 5.15820312 10.86132812 C4.63806641 10.03955078 4.11792969 9.21777344 3.58203125 8.37109375 C2.87397339 7.2562561 2.87397339 7.2562561 2.15161133 6.11889648 C1.0343196 4.06314603 0.44827608 2.28598177 0 0 Z " fill="#F8AFCA" transform="translate(197,321)"/>
<path d="M0 0 C2.5835898 1.13032054 3.55258015 2.48675724 5 4.875 C5 5.535 5 6.195 5 6.875 C4.030625 7.514375 3.06125 8.15375 2.0625 8.8125 C-1.24255225 10.58561007 -1.24255225 10.58561007 -2 13.875 C-1.52949219 13.43027344 -1.05898438 12.98554688 -0.57421875 12.52734375 C0.04839844 11.96144531 0.67101562 11.39554687 1.3125 10.8125 C1.92738281 10.24402344 2.54226562 9.67554688 3.17578125 9.08984375 C3.77777344 8.68894531 4.37976562 8.28804688 5 7.875 C8.34998521 8.99166174 8.79340222 9.62194925 10.6875 12.4375 C11.12449219 13.07816406 11.56148437 13.71882813 12.01171875 14.37890625 C12.50091797 15.11947266 12.50091797 15.11947266 13 15.875 C17.64586892 15.39015724 17.64586892 15.39015724 22 13.875 C24.93088737 13.59136574 27.15364494 13.37702933 30 13.875 C33.77587956 17.34472716 36.66671949 22.20453722 37.30859375 27.34765625 C37 29.875 37 29.875 35.42578125 31.74609375 C29.74165807 35.95927933 29.74165807 35.95927933 26.25 35.5625 C23.65325296 33.61493972 21.87566248 31.51482126 20 28.875 C18.68 29.865 17.36 30.855 16 31.875 C17.12338245 36.72870845 19.08897933 41.26815493 21.00390625 45.85546875 C22.7608349 50.31924441 23.18814303 53.08768685 22 57.875 C22.0928125 59.4528125 22.0928125 59.4528125 22.1875 61.0625 C22.0946875 62.4546875 22.0946875 62.4546875 22 63.875 C20.0625 65.5 20.0625 65.5 18 66.875 C17.896875 67.514375 17.79375 68.15375 17.6875 68.8125 C16.82379297 71.40362109 15.92604859 71.79438081 13.625 73.1875 C10 74.875 10 74.875 7 73.875 C5.52050781 71.92333984 5.52050781 71.92333984 3.953125 69.3359375 C3.36257324 68.37365234 2.77202148 67.41136719 2.16357422 66.41992188 C1.53209473 65.37384766 0.90061523 64.32777344 0.25 63.25 C-1.09433007 61.05865282 -2.44074215 58.86858175 -3.7890625 56.6796875 C-4.13407806 56.11815979 -4.47909363 55.55663208 -4.83456421 54.97808838 C-9.08500135 48.0784104 -13.53785509 41.31269696 -17.98730469 34.54052734 C-19.13433708 32.79340658 -20.27840987 31.0443377 -21.41894531 29.29296875 C-22.45792017 27.70402388 -23.50905465 26.12295155 -24.57324219 24.55078125 C-25.27562012 23.48923828 -25.27562012 23.48923828 -25.9921875 22.40625 C-26.40581543 21.79330078 -26.81944336 21.18035156 -27.24560547 20.54882812 C-28 18.875 -28 18.875 -27 15.875 C-24.91455078 14.28100586 -24.91455078 14.28100586 -22.1953125 12.58984375 C-21.21949219 11.97689453 -20.24367188 11.36394531 -19.23828125 10.73242188 C-18.21089844 10.09884766 -17.18351562 9.46527344 -16.125 8.8125 C-14.10676787 7.55078598 -12.08853858 6.28906743 -10.0703125 5.02734375 C-9.17070801 4.47038818 -8.27110352 3.91343262 -7.34423828 3.33959961 C-1.81709696 -0.11356856 -1.81709696 -0.11356856 0 0 Z " fill="#F8AFCA" transform="translate(46,304.125)"/>
<path d="M0 0 C2.27126455 3.40689682 2.33472756 5.10263559 2.5625 9.125 C2.46334775 12.87914167 2.46334775 12.87914167 4 16 C11.19480129 16.49619319 17.7491479 15.1820041 24.7421875 13.65625 C28 13 28 13 31 13 C30.76399822 24.17468436 30.43669802 34.56611017 26 45 C25.43925781 46.41152344 25.43925781 46.41152344 24.8671875 47.8515625 C23 50 23 50 19.234375 50.49609375 C15.10932818 50.23241355 11.97804236 48.85482806 8.25 47.0625 C-0.59578138 43.23133889 -9.54536873 43.30892949 -19.06347656 43.31469727 C-26.06574635 43.28681731 -31.49110135 42.6383664 -38 40 C-38 39.01 -38 38.02 -38 37 C-35.93563281 35.54718667 -33.94077592 34.29393186 -31.75 33.0625 C-25.02431024 29.22663958 -20.95115305 26.2129892 -18.66015625 18.7265625 C-17.40589729 13.54625035 -16.69370005 8.28028155 -16 3 C-14.27709395 2.29695778 -12.54632534 1.61316509 -10.8125 0.9375 C-9.84957031 0.55464844 -8.88664062 0.17179688 -7.89453125 -0.22265625 C-4.73480087 -1.07122082 -3.06665428 -1.09636863 0 0 Z " fill="#07A0E3" transform="translate(105,246)"/>
<path d="M0 0 C6.60908406 3.43819854 13.30277661 7.79432312 15.66796875 15.15625 C18.41606761 25.58593949 19.00533147 35.52634028 19.05078125 46.26953125 C19.07140625 47.47673828 19.09203125 48.68394531 19.11328125 49.92773438 C19.16748058 62.45455548 16.90495601 73.17260775 8.11328125 82.45703125 C5.80078125 84.45703125 5.80078125 84.45703125 3.80078125 84.45703125 C3.77794571 83.78654755 3.75511017 83.11606384 3.73158264 82.42526245 C3.49123903 75.38349624 3.24724304 68.34186302 3.0012207 61.30029297 C2.91013345 58.67988201 2.81994642 56.05943958 2.73071289 53.43896484 C2.60154863 49.65062772 2.46903931 45.86241934 2.3359375 42.07421875 C2.29735123 40.9215451 2.25876495 39.76887146 2.2190094 38.58126831 C1.93151028 30.5236863 1.4228108 22.49551588 0.80078125 14.45703125 C0.14078125 14.45703125 -0.51921875 14.45703125 -1.19921875 14.45703125 C-1.44027344 15.18664062 -1.68132812 15.91625 -1.9296875 16.66796875 C-3.37064451 19.83364047 -5.0320228 21.65651353 -7.51171875 24.08203125 C-8.27097656 24.83742188 -9.03023437 25.5928125 -9.8125 26.37109375 C-12.15168014 28.4154836 -14.5391124 29.87287153 -17.19921875 31.45703125 C-17.69421875 32.44703125 -17.69421875 32.44703125 -18.19921875 33.45703125 C-19.18921875 33.78703125 -20.17921875 34.11703125 -21.19921875 34.45703125 C-22.88460476 36.45368439 -22.88460476 36.45368439 -24.19921875 38.45703125 C-27.25225919 37.05307835 -29.98204653 35.30657842 -32.76831055 33.43554688 C-41.32941389 27.70976203 -50.39483779 22.72515824 -60.19921875 19.45703125 C-59.86921875 17.80703125 -59.53921875 16.15703125 -59.19921875 14.45703125 C-44.64223231 16.4842264 -34.22233363 24.28693727 -25.19921875 35.45703125 C-25.09867188 34.74160156 -24.998125 34.02617188 -24.89453125 33.2890625 C-23.07468609 23.65385492 -18.42845637 17.70304874 -12.19921875 10.45703125 C-12.97007812 10.13089844 -13.7409375 9.80476563 -14.53515625 9.46875 C-16.03949219 8.81326172 -16.03949219 8.81326172 -17.57421875 8.14453125 C-18.57195312 7.71527344 -19.5696875 7.28601563 -20.59765625 6.84375 C-23.19921875 5.45703125 -23.19921875 5.45703125 -25.19921875 2.45703125 C-25.07421875 -0.10546875 -25.07421875 -0.10546875 -24.19921875 -2.54296875 C-16.97007234 -7.3407879 -7.12053639 -3.20470315 0 0 Z " fill="#FDB0CC" transform="translate(214.19921875,77.54296875)"/>
<path d="M0 0 C2.88617076 0.99714153 3.45675647 2.56961428 4.91015625 5.203125 C6.90210496 8.7326144 6.90210496 8.7326144 10.3828125 10.51171875 C14.06491198 10.69499067 16.84170681 10.60592834 19.84765625 8.33203125 C20.38390625 7.79449219 20.92015625 7.25695312 21.47265625 6.703125 C24.42812709 3.74068371 26.29296011 3.27136634 30.47265625 3.265625 C32.3303039 3.35698472 34.18541548 3.50906189 36.03515625 3.703125 C37.35128906 3.70828125 38.66742188 3.7134375 40.0234375 3.71875 C42.64156639 4.05836066 43.74052075 4.41350839 45.64038086 6.28100586 C47.16338851 8.42301747 48.48905361 10.60439116 49.78515625 12.890625 C50.69659666 14.40495871 51.60805468 15.91928181 52.51953125 17.43359375 C52.94298828 18.1611084 53.36644531 18.88862305 53.80273438 19.63818359 C54.92694274 21.52181163 56.11601852 23.32541695 57.36328125 25.12890625 C59.03515625 27.703125 59.03515625 27.703125 59.03515625 29.703125 C57.67197266 29.86748047 57.67197266 29.86748047 56.28125 30.03515625 C48.30760175 31.04106264 40.48638589 32.3511608 32.609375 33.97265625 C27.43369323 35.03041853 22.26963725 35.9876204 17.03515625 36.703125 C15.79958984 36.90228516 15.79958984 36.90228516 14.5390625 37.10546875 C12.11198287 37.33876308 10.38198307 37.37687682 8.03515625 36.703125 C5.93673671 34.95232243 4.37026055 33.12974213 2.73828125 30.94140625 C1.04088834 28.59171413 1.04088834 28.59171413 -1.3359375 26.421875 C-4.48061653 23.16972551 -6.83052236 19.67866701 -9.27734375 15.890625 C-9.73173828 15.19775391 -10.18613281 14.50488281 -10.65429688 13.79101562 C-11.76315851 12.0985426 -12.86475813 10.40131542 -13.96484375 8.703125 C-13.16691406 7.91550781 -12.36898437 7.12789062 -11.546875 6.31640625 C-9.06181678 3.93372955 -9.06181678 3.93372955 -7.65234375 1.890625 C-5.24471071 0.19636471 -2.90044052 -0.06316749 0 0 Z " fill="#05A0E5" transform="translate(157.96484375,232.296875)"/>
<path d="M0 0 C4.83256305 0.41421969 6.82679218 2.46413986 10 6 C12.27238207 4.94496547 14.07464578 3.93701762 16 2.3125 C18 1 18 1 20.1875 1.1875 C22 2 22 2 23 4 C23.06950541 5.54023996 23.08452357 7.08334988 23.0625 8.625 C23.05347656 9.44226562 23.04445312 10.25953125 23.03515625 11.1015625 C23.02355469 11.72804688 23.01195312 12.35453125 23 13 C24.299375 13.144375 25.59875 13.28875 26.9375 13.4375 C30.875 13.875 30.875 13.875 32 15 C32.04063832 16.66617115 32.042721 18.33388095 32 20 C29.03 20.495 29.03 20.495 26 21 C26.495 23.475 26.495 23.475 27 26 C27.99 26 28.98 26 30 26 C30.6875 28.3125 30.6875 28.3125 31 31 C30.49984375 31.42796875 29.9996875 31.8559375 29.484375 32.296875 C27.68677765 33.97262826 27.68677765 33.97262826 28.06640625 36.77734375 C28.39679939 38.88197408 28.7301274 40.98614581 29.06640625 43.08984375 C29 46 29 46 27.57421875 48.39453125 C23.76320594 50.77135411 20.60300586 50.20479166 16.25 49.75 C15.45722656 49.68425781 14.66445312 49.61851563 13.84765625 49.55078125 C11.89673634 49.38624584 9.94804503 49.19565518 8 49 C9.485 51.475 9.485 51.475 11 54 C5.72 54 0.44 54 -5 54 C-4.89300781 52.865625 -4.78601563 51.73125 -4.67578125 50.5625 C-4.0001539 42.47201945 -3.5852411 36.51246958 -7 29 C-7.24654577 26.27377277 -7.14697203 23.74347785 -7 21 C-8.98 20.67 -10.96 20.34 -13 20 C-13.1875 17.625 -13.1875 17.625 -13 15 C-9.3558226 12.5705484 -7.28758728 12.83820425 -3 13 C-2.95101562 12.31292969 -2.90203125 11.62585937 -2.8515625 10.91796875 C-2.77679688 10.01691406 -2.70203125 9.11585937 -2.625 8.1875 C-2.52058594 6.84751953 -2.52058594 6.84751953 -2.4140625 5.48046875 C-2 3 -2 3 0 0 Z " fill="#F2A9C4" transform="translate(138,21)"/>
<path d="M0 0 C4.84047193 1.85925412 6.74634537 5.70218379 9.51171875 9.8828125 C12.67565704 12.57489186 14.33472135 12.51936045 18.37133789 12.29199219 C23.40749797 11.73257476 28.38578945 10.94276975 33.375 10.0625 C34.45394531 9.88009766 35.53289062 9.69769531 36.64453125 9.50976562 C42.39275315 8.54515033 42.39275315 8.54515033 48 7 C53.45721953 5.97226372 58.46027255 5.39374469 64 6 C67.60342572 8.64210913 69.06083878 12.04709443 71 16 C71.70092385 17.13841993 72.41779302 18.26714168 73.1484375 19.38671875 C79.34153945 28.91104061 79.34153945 28.91104061 80 34 C74.50914371 33.65682148 71.45977958 32.30537042 67.08984375 28.9609375 C64.00181472 27.54102135 62.25298804 28.09880769 59 29 C56.46965348 30.22934047 54.06215523 31.48729595 51.625 32.875 C50.29069941 33.60456426 48.95477674 34.33117034 47.6171875 35.0546875 C46.98651367 35.3959668 46.35583984 35.73724609 45.70605469 36.08886719 C39.18618767 39.57085684 32.39333991 41.6951617 25 40 C21.95223557 37.2955382 20.29748043 34.02642446 18.4375 30.4375 C17.34880374 28.50903173 16.25763578 26.58195685 15.1640625 24.65625 C14.63586914 23.69847656 14.10767578 22.74070312 13.56347656 21.75390625 C11.34308689 17.84291382 8.86045611 14.14031569 6.3125 10.4375 C1.66557725 3.64289356 1.66557725 3.64289356 0 0 Z " fill="#0BA1E2" transform="translate(154,256)"/>
<path d="M0 0 C3.1875 -0.1875 3.1875 -0.1875 6 0 C6.67528223 1.57967807 7.33989694 3.16391903 8 4.75 C8.37125 5.63171875 8.7425 6.5134375 9.125 7.421875 C10 10 10 10 10 14 C10.66 14 11.32 14 12 14 C12 11.03 12 8.06 12 5 C12.66 5 13.32 5 14 5 C14.19958724 6.49843958 14.38390687 7.99891348 14.5625 9.5 C14.66691406 10.3353125 14.77132812 11.170625 14.87890625 12.03125 C14.99773898 14.94456848 14.73949091 17.65037711 14.33618164 20.53320312 C13.92100989 23.57960499 13.58354964 26.63151983 13.24609375 29.6875 C13.11396484 30.87988281 12.98183594 32.07226562 12.84570312 33.30078125 C12.71099609 34.52152344 12.57628906 35.74226563 12.4375 37 C12.22963867 38.87751953 12.22963867 38.87751953 12.01757812 40.79296875 C11.67788459 43.86192413 11.33870594 46.93093549 11 50 C10.01 49.67 9.02 49.34 8 49 C8.14076315 47.0412957 8.2877676 45.08303907 8.4375 43.125 C8.51871094 42.03445313 8.59992188 40.94390625 8.68359375 39.8203125 C9 37 9 37 10 35 C8.80503906 35.28875 7.61007813 35.5775 6.37890625 35.875 C4.77355901 36.25051982 3.16808323 36.62549044 1.5625 37 C0.77939453 37.19078125 -0.00371094 37.3815625 -0.81054688 37.578125 C-6.12497758 38.80284977 -11.54371822 39.79289897 -17 39 C-19.66363908 36.33636092 -19.3201312 34.77229395 -19.5 31.0625 C-19.71104199 26.22497103 -19.71104199 26.22497103 -22 22 C-26.86896303 22.59619955 -31.32790951 23.56976822 -36 25 C-35.88372713 23.02030146 -35.7564632 21.04124787 -35.625 19.0625 C-35.55539063 17.96035156 -35.48578125 16.85820312 -35.4140625 15.72265625 C-34.93172932 11.38620796 -34.0231112 7.2361132 -33 3 C-32.10692139 3.01571045 -31.21384277 3.0314209 -30.29370117 3.04760742 C-26.97821244 3.09875439 -23.66314325 3.13635812 -20.34741211 3.16479492 C-18.91277448 3.17987589 -17.47818292 3.2003438 -16.04370117 3.22631836 C-13.98084141 3.26273437 -11.91859142 3.27973243 -9.85546875 3.29296875 C-8.61434326 3.3086792 -7.37321777 3.32438965 -6.09448242 3.34057617 C-2.68534136 2.96536893 -2.12706057 2.49975591 0 0 Z " fill="#05A0E4" transform="translate(126,224)"/>
<path d="M0 0 C9.2136917 -0.39533353 18.42443629 -0.69660863 27.64478111 -0.88080692 C31.92754501 -0.96926199 36.2044802 -1.08895908 40.48388672 -1.2824707 C68.20729357 -2.50493642 68.20729357 -2.50493642 74.56066895 1.69122314 C78.87906319 6.31476957 82 12.55606886 82 19 C81.505 18.835 81.01 18.67 80.5 18.5 C74.78905699 17.3578114 70.25444058 17.59797002 65 20 C64.01 20 63.02 20 62 20 C62 20.66 62 21.32 62 22 C50.28477641 23.24043544 39.10566407 19.57390459 28.70703125 14.34375 C25.07996283 12.54330045 21.88204985 11.78546233 18 13 C15.2549427 15.38181721 13.10789886 18.04894159 11 21 C8.66796875 20.78125 8.66796875 20.78125 6 20 C4.48828125 17.96875 4.48828125 17.96875 3.3125 15.5 C1.84638807 12.08580977 1.84638807 12.08580977 -1 10 C-0.67 6.7 -0.34 3.4 0 0 Z " fill="#04A0E5" transform="translate(99,187)"/>
<path d="M0 0 C0.99 0 1.98 0 3 0 C3.53625 1.11375 4.0725 2.2275 4.625 3.375 C6.34958891 6.44576082 6.84217726 6.93019379 10.25 8.4375 C11.1575 8.623125 12.065 8.80875 13 9 C13 9.99 13 10.98 13 12 C27.67379022 15.48248938 42.87531541 15.23373611 57.875 15.5625 C59.7382884 15.60581343 61.60156975 15.64943118 63.46484375 15.69335938 C67.97648909 15.79907425 72.48820919 15.9006959 77 16 C77 16.33 77 16.66 77 17 C74.69 17.33 72.38 17.66 70 18 C70.60062256 18.176521 71.20124512 18.35304199 71.82006836 18.53491211 C74.52687158 19.33245 77.23219163 20.13490682 79.9375 20.9375 C80.88302734 21.21529297 81.82855469 21.49308594 82.80273438 21.77929688 C83.70185547 22.04677734 84.60097656 22.31425781 85.52734375 22.58984375 C86.35999756 22.83597412 87.19265137 23.08210449 88.05053711 23.33569336 C90 24 90 24 91 25 C91 26.65 91 28.3 91 30 C62.62 30 34.24 30 5 30 C5.66 23.73 6.32 17.46 7 11 C5.02 8.69 3.04 6.38 1 4 C0.67 2.68 0.34 1.36 0 0 Z " fill="#F7A8B4" transform="translate(85,157)"/>
<path d="M0 0 C2.82534993 3.41568095 5.27929133 6.89388487 7.6015625 10.66796875 C8.25640625 11.72564453 8.91125 12.78332031 9.5859375 13.87304688 C10.25882813 14.96681641 10.93171875 16.06058594 11.625 17.1875 C12.96887223 19.37001977 14.31511057 21.55108494 15.6640625 23.73046875 C16.25654785 24.69364014 16.8490332 25.65681152 17.45947266 26.64916992 C18.92714496 29.06305069 18.92714496 29.06305069 21 31 C21.74765625 30.566875 22.4953125 30.13375 23.265625 29.6875 C24.74289063 28.8521875 24.74289063 28.8521875 26.25 28 C27.22453125 27.443125 28.1990625 26.88625 29.203125 26.3125 C32 25 32 25 36 25 C37.03891291 27.53554978 38.05607425 30.07657825 39.0625 32.625 C39.35705078 33.33785156 39.65160156 34.05070312 39.95507812 34.78515625 C41.72119083 39.31471591 42.21739811 42.15164124 41 47 C41.0928125 48.5778125 41.0928125 48.5778125 41.1875 50.1875 C41.0946875 51.5796875 41.0946875 51.5796875 41 53 C39.0625 54.625 39.0625 54.625 37 56 C36.896875 56.639375 36.79375 57.27875 36.6875 57.9375 C35.82379297 60.52862109 34.92604859 60.91938081 32.625 62.3125 C29 64 29 64 26 63 C24.52050781 61.04833984 24.52050781 61.04833984 22.953125 58.4609375 C22.36257324 57.49865234 21.77202148 56.53636719 21.16357422 55.54492188 C20.53209473 54.49884766 19.90061523 53.45277344 19.25 52.375 C17.90566993 50.18365282 16.55925785 47.99358175 15.2109375 45.8046875 C14.86592194 45.24315979 14.52090637 44.68163208 14.16543579 44.10308838 C9.91499865 37.2034104 5.46214491 30.43769696 1.01269531 23.66552734 C-0.13433708 21.91840658 -1.27840987 20.1693377 -2.41894531 18.41796875 C-3.45792017 16.82902388 -4.50905465 15.24795155 -5.57324219 13.67578125 C-6.27562012 12.61423828 -6.27562012 12.61423828 -6.9921875 11.53125 C-7.40581543 10.91830078 -7.81944336 10.30535156 -8.24560547 9.67382812 C-9 8 -9 8 -8 5 C-6.15234375 3.61328125 -6.15234375 3.61328125 -3.9375 2.3125 C-3.20402344 1.87550781 -2.47054688 1.43851562 -1.71484375 0.98828125 C-1.14894531 0.66214844 -0.58304688 0.33601563 0 0 Z " fill="#3C6B47" transform="translate(27,315)"/>
<path d="M0 0 C1.3515625 2.0703125 1.3515625 2.0703125 2 4 C3.32 3.67 4.64 3.34 6 3 C6.86658615 4.26239712 7.71792059 5.53527501 8.5625 6.8125 C9.03816406 7.52019531 9.51382813 8.22789062 10.00390625 8.95703125 C11 11 11 11 10 14 C7.85046144 15.64498026 5.71977698 17.13944519 3.45703125 18.61328125 C2.78477005 19.06011261 2.11250885 19.50694397 1.4198761 19.96731567 C-0.77712313 21.42416943 -2.98183127 22.86881175 -5.1875 24.3125 C-6.69377004 25.3050438 -8.19979146 26.29796502 -9.70556641 27.29125977 C-13.44023356 29.75099663 -17.18237315 32.19910391 -20.92681885 34.6439209 C-22.84393267 35.89791551 -24.75756083 37.15697919 -26.66943359 38.41894531 C-29.7305382 40.43680958 -32.80023647 42.44053232 -35.875 44.4375 C-36.76985107 45.02764893 -37.66470215 45.61779785 -38.58666992 46.22583008 C-39.40111572 46.74814209 -40.21556152 47.2704541 -41.0546875 47.80859375 C-42.09858643 48.48619751 -42.09858643 48.48619751 -43.16357422 49.17749023 C-45 50 -45 50 -48 49 C-49.38671875 46.93359375 -49.38671875 46.93359375 -50.6875 44.4375 C-51.12449219 43.61121094 -51.56148437 42.78492188 -52.01171875 41.93359375 C-52.50091797 40.97646484 -52.50091797 40.97646484 -53 40 C-52.27635254 39.56300781 -52.27635254 39.56300781 -51.53808594 39.1171875 C-41.88294696 33.27727462 -32.31463682 27.37413383 -23 21 C-23.57614466 17.25837091 -24.62901096 14.55701579 -26.5625 11.3125 C-29 7.20396601 -29 7.20396601 -29 5 C-10.13219293 -3.35608914 -10.13219293 -3.35608914 0 0 Z " fill="#3C6B47" transform="translate(288,326)"/>
<path d="M0 0 C9.63451777 11.48730964 9.63451777 11.48730964 10.5 17.4375 C10 20 10 20 8 22 C6.42332529 22.65123521 4.84535511 23.29947521 3.26171875 23.93359375 C-0.71162738 25.80703675 -4.35027629 28.28953474 -8.03515625 30.671875 C-11.72590243 32.32517369 -13.16853427 32.24486307 -17 31 C-19.58686102 29.56811014 -21.97290533 27.90785264 -24.375 26.1875 C-33.72565941 19.23254126 -33.72565941 19.23254126 -44.75 16.5625 C-48.29948954 16.31115445 -48.78956139 16.19504066 -51.5625 13.625 C-53 11 -53 11 -53 8 C-48.1971831 4.07042254 -48.1971831 4.07042254 -44.875 3.875 C-42.03849883 5.5769007 -40.80549211 8.26440589 -39 11 C-35.29095543 14.27268639 -31.59813206 14.63312987 -26.80859375 14.4765625 C-18.26493009 13.0268727 -10.81345 7.44092694 -3.9609375 2.41796875 C-2 1 -2 1 0 0 Z " fill="#06A0E5" transform="translate(246,306)"/>
<path d="M0 0 C0.66 0.33 1.32 0.66 2 1 C3.9177966 1.08302229 5.83822171 1.10823893 7.7578125 1.10546875 C31.44308826 1.32615918 31.44308826 1.32615918 42.703125 6.625 C46.59201573 8.24690703 49.81789151 8.63475035 54 9 C52.09233857 11.42475647 50.0811837 13.72283039 48 16 C47.52820313 16.5671875 47.05640625 17.134375 46.5703125 17.71875 C44.68682563 19.55344187 43.56835363 20.33093309 41 21 C37.01733546 20.39159729 33.34519601 19.39478086 29.5234375 18.1484375 C24.82580623 16.61728052 20.66278228 15.88610061 15.7265625 15.859375 C14.7365625 15.84003906 13.7465625 15.82070313 12.7265625 15.80078125 C10.66686206 15.76705819 8.60684983 15.74870793 6.546875 15.74609375 C-0.36972134 15.57542449 -3.72618047 14.48065934 -9 10 C-12.16245541 8.9458482 -14.86948218 8.68724328 -18.1875 8.4375 C-19.27417969 8.35371094 -20.36085937 8.26992188 -21.48046875 8.18359375 C-22.31191406 8.12300781 -23.14335938 8.06242187 -24 8 C-22.36466012 6.62842462 -20.68662519 5.30799504 -19 4 C-18.34515625 3.44828125 -17.6903125 2.8965625 -17.015625 2.328125 C-10.98949287 -2.3303743 -7.12135059 -2.57122488 0 0 Z " fill="#07A1E4" transform="translate(74,287)"/>
<path d="M0 0 C1.828125 0.21484375 1.828125 0.21484375 4 1 C5.484375 3.06640625 5.484375 3.06640625 6.75 5.5625 C7.17796875 6.38878906 7.6059375 7.21507812 8.046875 8.06640625 C8.36140625 8.70449219 8.6759375 9.34257812 9 10 C12.68674406 9.58890278 12.68674406 9.58890278 15.51953125 7.37109375 C16.15955078 6.41396484 16.15955078 6.41396484 16.8125 5.4375 C19.30519633 2.33916134 19.6927124 2.05451877 23.875 1.3125 C27.52475082 1.65423697 30.27734027 3.01359306 33.484375 4.78125 C43.04121866 9.41127364 53.41742532 11.77952969 64 12 C64 11.34 64 10.68 64 10 C70.64625961 7.15160302 75.45427322 6.15428339 82.6875 7.5 C86.27696842 9.82830384 87.97860127 13.30127042 90 17 C87.60740356 17.84726689 86.43648218 18.1726838 84.03515625 17.22265625 C83.38417969 16.83980469 82.73320312 16.45695312 82.0625 16.0625 C77.77279896 13.79332718 77.77279896 13.79332718 73 14 C71.3603125 14.99 71.3603125 14.99 69.6875 16 C62.0183419 19.99255796 52.42442909 19.16598351 44.359375 16.71875 C40.16973452 15.30725022 36.08460437 13.68987919 32 12 C27.14712191 9.84147084 27.14712191 9.84147084 22 10 C20.26507093 11.68339652 18.80117343 13.45229327 17.33203125 15.37109375 C15.42845796 17.69892385 14.23579502 17.96784613 11.25 18.375 C6.8786319 17.87061137 5.10116468 16.03068367 2 13 C-0.20914 9.68629 -0.22481553 8.6553979 -0.125 4.8125 C-0.10695313 3.91144531 -0.08890625 3.01039063 -0.0703125 2.08203125 C-0.04710938 1.39496094 -0.02390625 0.70789063 0 0 Z " fill="#DCDA36" transform="translate(97,197)"/>
<path d="M0 0 C4.83256305 0.41421969 6.82679218 2.46413986 10 6 C12.27238207 4.94496547 14.07464578 3.93701762 16 2.3125 C18 1 18 1 20.1875 1.1875 C22 2 22 2 23 4 C23.06950541 5.54023996 23.08452357 7.08334988 23.0625 8.625 C23.05347656 9.44226562 23.04445312 10.25953125 23.03515625 11.1015625 C23.02355469 11.72804688 23.01195312 12.35453125 23 13 C24.299375 13.144375 25.59875 13.28875 26.9375 13.4375 C30.875 13.875 30.875 13.875 32 15 C32.04063832 16.66617115 32.042721 18.33388095 32 20 C28.58088664 21.70955668 24.66764905 21.14146246 20.90625 21.1328125 C20.0037854 21.13376923 19.1013208 21.13472595 18.17150879 21.13571167 C16.26163666 21.13639279 14.35176222 21.13454321 12.44189453 21.13037109 C9.51199157 21.12502189 6.58224192 21.13031837 3.65234375 21.13671875 C1.79947883 21.13605796 -0.053386 21.13477677 -1.90625 21.1328125 C-3.22659241 21.13584885 -3.22659241 21.13584885 -4.5736084 21.13894653 C-10.7700834 21.1149583 -10.7700834 21.1149583 -13 20 C-13.1875 17.625 -13.1875 17.625 -13 15 C-9.3558226 12.5705484 -7.28758728 12.83820425 -3 13 C-2.95101562 12.31292969 -2.90203125 11.62585937 -2.8515625 10.91796875 C-2.77679688 10.01691406 -2.70203125 9.11585937 -2.625 8.1875 C-2.52058594 6.84751953 -2.52058594 6.84751953 -2.4140625 5.48046875 C-2 3 -2 3 0 0 Z " fill="#E0B40E" transform="translate(138,21)"/>
<path d="M0 0 C1.20269531 -0.01675781 2.40539062 -0.03351563 3.64453125 -0.05078125 C8.26406549 0.42288654 11.51528405 1.90298933 15.06323242 4.89355469 C17.59271343 6.58317009 18.96135209 6.68095346 21.9765625 6.68359375 C22.91024658 6.69841797 23.84393066 6.71324219 24.8059082 6.72851562 C25.7980835 6.73560547 26.79025879 6.74269531 27.8125 6.75 C38.34579746 6.99691978 50.55489072 7.49619536 60.1875 12.3125 C60.1875 14.3125 60.1875 14.3125 58.6875 16 C54.47356041 18.21231829 50.14529196 16.72113571 45.6796875 15.7890625 C39.48075205 14.94312276 33.20333417 14.98849237 26.953125 14.8828125 C19.83603546 14.67036207 15.182147 13.86890598 9.625 9.125 C3.56897396 5.93182263 -4.28415167 6.3539955 -10.8125 8.3125 C-10.5 5.4375 -10.5 5.4375 -9.8125 2.3125 C-6.18030895 -0.1089607 -4.32091442 0.01380484 0 0 Z " fill="#D9D938" transform="translate(54.8125,294.6875)"/>
<path d="M0 0 C3.1875 1.625 3.1875 1.625 5 4 C5.8125 7.25 5.8125 7.25 6 10 C10.54471276 8.78068682 13.72330867 6.95918386 17.38671875 4.12109375 C21.70716562 1.11874932 26.9730393 1.55833412 32 2 C35 3.1875 35 3.1875 37 5 C37.70978283 6.64876637 38.38212504 8.31463572 39 10 C37.78183594 9.93039063 36.56367188 9.86078125 35.30859375 9.7890625 C26.66945549 9.07336953 26.66945549 9.07336953 18.59765625 11.3359375 C17.56297024 12.41363002 16.55288042 13.51571875 15.57421875 14.64453125 C12.79192624 17.04020247 9.75937703 16.74641041 6.23828125 16.52734375 C4 16 4 16 1.5 13.75 C-1.2 8.8 -1.2 8.8 -2 7 C-7.24251194 6.310898 -7.24251194 6.310898 -11.8671875 8.3359375 C-13.32201666 9.81861028 -14.67019562 11.40423474 -16 13 C-17.9375 12.1875 -17.9375 12.1875 -20 11 C-20.33 10.01 -20.66 9.02 -21 8 C-14.69013445 0.86156625 -9.59088292 -1.87071079 0 0 Z " fill="#DDDA35" transform="translate(162,227)"/>
<path d="M0 0 C0.72574219 0.23074219 1.45148438 0.46148437 2.19921875 0.69921875 C2.69421875 2.67921875 2.69421875 2.67921875 3.19921875 4.69921875 C-20.38343349 19.85309034 -20.38343349 19.85309034 -30.80078125 18.69921875 C-35.77321746 16.3050828 -38.07430768 13.31325094 -40.80078125 8.69921875 C-44.75898984 9.26467712 -47.46668655 10.50824223 -50.80078125 12.69921875 C-53.80078125 8.94921875 -53.80078125 8.94921875 -53.80078125 6.69921875 C-50.23621495 3.64387621 -46.73448026 1.85747282 -42.11328125 1.07421875 C-37.86576656 1.87563662 -36.50625635 3.39252697 -33.80078125 6.69921875 C-33.35605469 7.405625 -32.91132813 8.11203125 -32.453125 8.83984375 C-30.95328792 10.88373689 -30.95328792 10.88373689 -28.6015625 11.23046875 C-18.63877335 11.10534738 -12.89059272 7.02160738 -5.1953125 0.9921875 C-2.80078125 -0.30078125 -2.80078125 -0.30078125 0 0 Z " fill="#DBD936" transform="translate(242.80078125,302.30078125)"/>
<path d="M0 0 C2.27126455 3.40689682 2.33472756 5.10263559 2.5625 9.125 C2.46334775 12.87914167 2.46334775 12.87914167 4 16 C11.19480129 16.49619319 17.7491479 15.1820041 24.7421875 13.65625 C28 13 28 13 31 13 C30.67 15.31 30.34 17.62 30 20 C21.40780627 22.68506054 7.36367194 26.25729453 -0.9765625 21.98828125 C-3.60516065 19.42885673 -4.92250766 16.62113969 -5.09765625 12.95703125 C-5.04882812 9.97851562 -5.04882812 9.97851562 -5 7 C-10.445 8.485 -10.445 8.485 -16 10 C-16 7.69 -16 5.38 -16 3 C-14.27709395 2.29695778 -12.54632534 1.61316509 -10.8125 0.9375 C-9.84957031 0.55464844 -8.88664062 0.17179688 -7.89453125 -0.22265625 C-4.73480087 -1.07122082 -3.06665428 -1.09636863 0 0 Z " fill="#D9D838" transform="translate(105,246)"/>
<path d="M0 0 C2.75 1.875 2.75 1.875 5 4 C6.3303125 4.4021875 6.3303125 4.4021875 7.6875 4.8125 C10 6 10 6 11.3125 9.625 C11.539375 10.73875 11.76625 11.8525 12 13 C6.50914371 12.65682148 3.45977958 11.30537042 -0.91015625 7.9609375 C-3.99818528 6.54102135 -5.74701196 7.09880769 -9 8 C-11.53034652 9.22934047 -13.93784477 10.48729595 -16.375 11.875 C-17.70930059 12.60456426 -19.04522326 13.33117034 -20.3828125 14.0546875 C-21.01348633 14.3959668 -21.64416016 14.73724609 -22.29394531 15.08886719 C-29.22547799 18.79071034 -35.21262165 19.38650591 -43 19 C-43.33 17.02 -43.66 15.04 -44 13 C-42.98421875 12.76925781 -41.9684375 12.53851563 -40.921875 12.30078125 C-30.89191891 9.95259009 -21.06231879 7.34092173 -12.3125 1.6875 C-8.0863754 -0.4654314 -4.6597011 -0.89677266 0 0 Z " fill="#DBD937" transform="translate(222,277)"/>
<path d="M0 0 C4.84047193 1.85925412 6.74634537 5.70218379 9.51171875 9.8828125 C12.67565704 12.57489186 14.33472135 12.51936045 18.37133789 12.29199219 C23.40749797 11.73257476 28.38578945 10.94276975 33.375 10.0625 C34.45394531 9.88009766 35.53289062 9.69769531 36.64453125 9.50976562 C42.39275315 8.54515033 42.39275315 8.54515033 48 7 C50.73289293 6.77202438 53.45042204 6.58331813 56.1875 6.4375 C56.93708984 6.39431641 57.68667969 6.35113281 58.45898438 6.30664062 C60.30578375 6.20077315 62.15286834 6.0999024 64 6 C64.99 8.97 64.99 8.97 66 12 C62.10427617 12.62568376 58.20840488 13.25044463 54.3125 13.875 C53.16523438 14.0591748 52.01796875 14.24334961 50.8359375 14.43310547 C45.06103836 15.3581709 39.28505077 16.26590264 33.5 17.125 C29.30326486 17.75591857 25.20680777 18.57080515 21.09765625 19.6328125 C18.22927365 20.13491299 15.90945502 20.35231682 13 20 C10.83984375 17.91015625 10.83984375 17.91015625 8.9375 15.0625 C8.26589844 14.06734375 7.59429687 13.0721875 6.90234375 12.046875 C4.44357522 8.10880631 2.12108296 4.12999326 0 0 Z " fill="#DFDA32" transform="translate(154,256)"/>
<path d="M0 0 C2.93661973 0.34423828 5.8354738 0.39741358 8.79174805 0.44946289 C9.98735352 0.47331055 11.18295898 0.4971582 12.41479492 0.52172852 C14.89118537 0.56449193 17.36780052 0.59585346 19.84448242 0.61547852 C27.55446422 0.79362425 33.40121986 1.94183972 40.3347168 5.27368164 C43.69473511 6.6881793 46.50999216 7.57296003 50.1472168 7.89868164 C50.93741211 7.97344727 51.72760742 8.04821289 52.54174805 8.12524414 C53.13342773 8.17422852 53.72510742 8.22321289 54.3347168 8.27368164 C53.4597168 13.14868164 53.4597168 13.14868164 52.3347168 14.27368164 C46.41697851 14.67370043 42.9999363 13.93965256 37.5847168 11.33618164 C28.73893542 7.50502053 19.78934806 7.58261113 10.27124023 7.58837891 C3.26897045 7.56049896 -2.15638456 6.91204804 -8.6652832 4.27368164 C-8.6652832 3.28368164 -8.6652832 2.29368164 -8.6652832 1.27368164 C-5.51287117 -0.86995855 -3.62935634 -0.58891443 0 0 Z " fill="#DCD936" transform="translate(75.665283203125,281.726318359375)"/>
<path d="M0 0 C0.99 0.33 1.98 0.66 3 1 C4.24440254 3.56880238 5.27613936 6.01883819 6.25 8.6875 C6.53101562 9.39583984 6.81203125 10.10417969 7.1015625 10.83398438 C8.77628227 15.32339405 9.18674503 18.23219978 8 23 C8.020625 24.0725 8.04125 25.145 8.0625 26.25 C8 29 8 29 6 31 C2.77541036 30.86934402 1.41440904 30.4430507 -0.80859375 28.06640625 C-1.34613281 27.24011719 -1.88367188 26.41382813 -2.4375 25.5625 C-3.31921875 24.21671875 -3.31921875 24.21671875 -4.21875 22.84375 C-4.8065625 21.9053125 -5.394375 20.966875 -6 20 C-6.5878125 19.0821875 -7.175625 18.164375 -7.78125 17.21875 C-12 10.45283019 -12 10.45283019 -12 7 C-11.21753906 6.57847656 -10.43507812 6.15695312 -9.62890625 5.72265625 C-8.61699219 5.17480469 -7.60507812 4.62695312 -6.5625 4.0625 C-5.55316406 3.51722656 -4.54382812 2.97195313 -3.50390625 2.41015625 C-1.13329507 1.22300532 -1.13329507 1.22300532 0 0 Z " fill="#5A593D" transform="translate(60,339)"/>
<path d="M0 0 C0.66 0.66 1.32 1.32 2 2 C1.7823844 4.42278701 1.35251342 5.63935947 -0.35546875 7.38671875 C-0.96003906 7.81597656 -1.56460937 8.24523437 -2.1875 8.6875 C-3.24517578 9.43966797 -3.24517578 9.43966797 -4.32421875 10.20703125 C-9.82601647 13.89363731 -15.40188041 17.46186262 -21 21 C-22.86486195 18.20270707 -24.50272475 15.38032298 -26.125 12.4375 C-26.66382813 11.46683594 -27.20265625 10.49617188 -27.7578125 9.49609375 C-29 7 -29 7 -29 5 C-19.26962497 0.69065547 -10.81129472 -2.72840245 0 0 Z " fill="#5A593D" transform="translate(288,326)"/>
<path d="M0 0 C3.1875 -0.1875 3.1875 -0.1875 6 0 C6.67528223 1.57967807 7.33989694 3.16391903 8 4.75 C8.37125 5.63171875 8.7425 6.5134375 9.125 7.421875 C10 10 10 10 10 14 C10.66 14 11.32 14 12 14 C11.67 15.98 11.34 17.96 11 20 C6.25 19.25 6.25 19.25 4 17 C3.3671875 14.8359375 3.3671875 14.8359375 2.875 12.375 C2.62363281 11.14910156 2.62363281 11.14910156 2.3671875 9.8984375 C2.24601562 9.27195313 2.12484375 8.64546875 2 8 C1.28199219 8.50015625 0.56398437 9.0003125 -0.17578125 9.515625 C-3.38244077 11.20100621 -4.65561367 11.21887957 -8.1875 10.75 C-13.7099608 10.12103388 -19.20143983 9.7238068 -24.75 9.4375 C-25.56106201 9.39399414 -26.37212402 9.35048828 -27.20776367 9.30566406 C-29.13842227 9.20214349 -31.06919905 9.10083072 -33 9 C-33 7.02 -33 5.04 -33 3 C-32.10692139 3.01571045 -31.21384277 3.0314209 -30.29370117 3.04760742 C-26.97821244 3.09875439 -23.66314325 3.13635812 -20.34741211 3.16479492 C-18.91277448 3.17987589 -17.47818292 3.2003438 -16.04370117 3.22631836 C-13.98084141 3.26273437 -11.91859142 3.27973243 -9.85546875 3.29296875 C-8.61434326 3.3086792 -7.37321777 3.32438965 -6.09448242 3.34057617 C-2.68534136 2.96536893 -2.12706057 2.49975591 0 0 Z " fill="#DCD935" transform="translate(126,224)"/>
<path d="M0 0 C4.83256305 0.41421969 6.82679218 2.46413986 10 6 C12.27238207 4.94496547 14.07464578 3.93701762 16 2.3125 C18 1 18 1 20.1875 1.1875 C22 2 22 2 23 4 C23 7.3 23 10.6 23 14 C14.42 14 5.84 14 -3 14 C-3 7.2372935 -2.71237343 5.53776243 0 0 Z " fill="#DFB40F" transform="translate(138,21)"/>
<path d="M0 0 C13.56760605 0.44483954 24.16684375 9.60246011 35 17 C33.68 18.32 32.36 19.64 31 21 C26.53410456 19.31288394 22.74170637 17.25368468 18.75 14.625 C14.08104929 11.56402817 9.37945183 9.24499902 4.21484375 7.140625 C2 6 2 6 0 3 C0 2.01 0 1.02 0 0 Z " fill="#DCD935" transform="translate(197,321)"/>
<path d="M0 0 C9.63581873 1.49043239 17.68964614 7.89901332 25 14 C20.65913758 19.89117043 20.65913758 19.89117043 17 21 C13.74332209 20.76247892 12.39691649 20.43139441 10.15625 17.99609375 C9.6096875 17.15175781 9.063125 16.30742187 8.5 15.4375 C7.91089844 14.53902344 7.32179687 13.64054687 6.71484375 12.71484375 C5.86599609 11.37099609 5.86599609 11.37099609 5 10 C4.48566406 9.21753906 3.97132813 8.43507813 3.44140625 7.62890625 C0 2.31568697 0 2.31568697 0 0 Z " fill="#07A1E4" transform="translate(201,328)"/>
<path d="M0 0 C0.66 0.33 1.32 0.66 2 1 C2 1.66 2 2.32 2 3 C1.34 3 0.68 3 0 3 C-0.36158203 4.09441406 -0.36158203 4.09441406 -0.73046875 5.2109375 C-2.17142576 8.37660922 -3.83280405 10.19948228 -6.3125 12.625 C-7.07175781 13.38039063 -7.83101562 14.13578125 -8.61328125 14.9140625 C-10.95246139 16.95845235 -13.33989365 18.41584028 -16 20 C-16.33 20.66 -16.66 21.32 -17 22 C-18.32 21.67 -19.64 21.34 -21 21 C-19.98640842 13.73373305 -15.30618965 6.80403689 -10 1.8125 C-6.36533427 -0.38344388 -4.17819247 -0.48209913 0 0 Z " fill="#8B70C6" transform="translate(213,89)"/>
<path d="M0 0 C0.9583374 0.00523682 1.9166748 0.01047363 2.90405273 0.01586914 C4.45576172 0.02070312 4.45576172 0.02070312 6.03881836 0.02563477 C7.12743164 0.03401367 8.21604492 0.04239258 9.33764648 0.05102539 C10.97636719 0.05779297 10.97636719 0.05779297 12.64819336 0.06469727 C15.35723144 0.07652713 18.06616248 0.09300996 20.77514648 0.11352539 C20.77514648 0.77352539 20.77514648 1.43352539 20.77514648 2.11352539 C16.48514648 2.11352539 12.19514648 2.11352539 7.77514648 2.11352539 C7.77514648 2.77352539 7.77514648 3.43352539 7.77514648 4.11352539 C9.75514648 4.11352539 11.73514648 4.11352539 13.77514648 4.11352539 C11.77514648 7.11352539 11.77514648 7.11352539 9.65014648 7.80102539 C9.03139648 7.90415039 8.41264648 8.00727539 7.77514648 8.11352539 C7.77514648 9.76352539 7.77514648 11.41352539 7.77514648 13.11352539 C8.43514648 13.44352539 9.09514648 13.77352539 9.77514648 14.11352539 C9.77514648 14.77352539 9.77514648 15.43352539 9.77514648 16.11352539 C4.82514648 16.60852539 4.82514648 16.60852539 -0.22485352 17.11352539 C-2.66635267 11.41669403 -3.65980033 7.31151753 -3.22485352 1.11352539 C-2.22485352 0.11352539 -2.22485352 0.11352539 0 0 Z " fill="#D3D9CD" transform="translate(134.224853515625,40.886474609375)"/>
<path d="M0 0 C13.10801506 1.82541247 23.48676056 8.41203755 31.90625 18.421875 C33 20 33 20 34 23 C30.42955692 21.71414113 27.74322814 20.18990666 24.75 17.875 C17.08909358 12.35822019 7.95397895 7.98465965 -1 5 C-0.67 3.35 -0.34 1.7 0 0 Z " fill="#D8D9CE" transform="translate(155,92)"/>
<path d="M0 0 C3.89977383 3.58357595 6.83923672 8.53496309 7.1875 13.875 C7.0946875 14.926875 7.0946875 14.926875 7 16 C5.02 16.99 5.02 16.99 3 18 C-1.28571429 10.57142857 -1.28571429 10.57142857 -3 7 C-3.721875 7.144375 -4.44375 7.28875 -5.1875 7.4375 C-9.09375 8.21875 -9.09375 8.21875 -13 9 C-13.99 7.35 -14.98 5.7 -16 4 C-10.52218639 0.73662168 -6.41433031 -0.96214955 0 0 Z " fill="#DFDB32" transform="translate(76,318)"/>
<path d="M0 0 C0.78240253 7.9805058 0.78240253 7.9805058 -2.0625 11.6875 C-3.031875 12.450625 -4.00125 13.21375 -5 14 C-5.58910156 14.53882812 -6.17820313 15.07765625 -6.78515625 15.6328125 C-11.56875 20 -11.56875 20 -15 20 C-15.7867228 16.10280836 -15.99774039 12.87182837 -15 9 C-11.055346 4.7971723 -5.98338285 0 0 0 Z " fill="#B32F1E" transform="translate(213,107)"/>
<path d="M0 0 C2.84151308 1.29930022 3.37748247 3.03285133 4.65234375 5.8359375 C5.06871094 6.73183594 5.48507813 7.62773437 5.9140625 8.55078125 C6.26082031 9.32550781 6.60757813 10.10023438 6.96484375 10.8984375 C7.29484375 11.5584375 7.62484375 12.2184375 7.96484375 12.8984375 C3.76813529 16.01599236 3.76813529 16.01599236 0.40234375 15.5234375 C-2.984239 13.26571567 -4.29408378 10.50093306 -6.03515625 6.8984375 C-6.44765625 6.0940625 -6.86015625 5.2896875 -7.28515625 4.4609375 C-7.53265625 3.9453125 -7.78015625 3.4296875 -8.03515625 2.8984375 C-2.69702371 -0.13459235 -2.69702371 -0.13459235 0 0 Z " fill="#0EA1E2" transform="translate(72.03515625,324.1015625)"/>
<path d="M0 0 C0.66 0 1.32 0 2 0 C2.19958724 1.49843958 2.38390687 2.99891348 2.5625 4.5 C2.66691406 5.3353125 2.77132812 6.170625 2.87890625 7.03125 C2.99773898 9.94456848 2.73949091 12.65037711 2.33618164 15.53320312 C1.92100989 18.57960499 1.58354964 21.63151983 1.24609375 24.6875 C1.11396484 25.87988281 0.98183594 27.07226562 0.84570312 28.30078125 C0.71099609 29.52152344 0.57628906 30.74226563 0.4375 32 C0.29892578 33.25167969 0.16035156 34.50335938 0.01757812 35.79296875 C-0.32211541 38.86192413 -0.66129406 41.93093549 -1 45 C-1.99 44.67 -2.98 44.34 -4 44 C-2.98866656 29.29013886 -1.9383915 14.62042102 0 0 Z " fill="#000507" transform="translate(138,229)"/>
<path d="M0 0 C0.66 0 1.32 0 2 0 C1.25235934 8.47010616 -0.41306127 16.73354745 -2.0625 25.0625 C-2.34733999 26.51490834 -2.63184788 27.96738186 -2.91601562 29.41992188 C-3.60685021 32.94737411 -4.3021738 36.47392339 -5 40 C-5.66 40 -6.32 40 -7 40 C-6.43730617 31.69396715 -5.12265702 23.65964675 -3.5 15.5 C-3.27441406 14.3346875 -3.04882812 13.169375 -2.81640625 11.96875 C-1.15029762 3.45089286 -1.15029762 3.45089286 0 0 Z " fill="#F47987" transform="translate(130,94)"/>
<path d="M0 0 C11.55 0 23.1 0 35 0 C35 0.66 35 1.32 35 2 C22.9895138 2.6524986 11.03000164 3.16631339 -1 3 C-0.67 2.01 -0.34 1.02 0 0 Z " fill="#050404" transform="translate(86,138)"/>
<path d="M0 0 C8.58 0 17.16 0 26 0 C26 0.99 26 1.98 26 3 C17.42 3 8.84 3 0 3 C0 2.01 0 1.02 0 0 Z " fill="#D5DECB" transform="translate(135,32)"/>
<path d="M0 0 C0 0.99 0 1.98 0 3 C0.66 3 1.32 3 2 3 C1.67 4.98 1.34 6.96 1 9 C1.99 9.33 2.98 9.66 4 10 C1.125 10.1875 1.125 10.1875 -2 10 C-4 7 -4 7 -4 3 C-7.63 3 -11.26 3 -15 3 C-15 2.34 -15 1.68 -15 1 C-12.8750734 0.83240016 -10.75005624 0.66594799 -8.625 0.5 C-7.44164062 0.4071875 -6.25828125 0.314375 -5.0390625 0.21875 C-3.36213157 0.09804546 -1.68126944 0 0 0 Z " fill="#14173C" transform="translate(157,42)"/>
<path d="M0 0 C6.36 -0.36 6.36 -0.36 9 1.125 C10.51087147 3.957884 9.78779328 5.98012574 9 9 C8 10 8 10 5.4375 10.0625 C4.633125 10.041875 3.82875 10.02125 3 10 C3.33 8.02 3.66 6.04 4 4 C3.34 4 2.68 4 2 4 C2 3.01 2 2.02 2 1 C1.34 0.67 0.68 0.34 0 0 Z " fill="#39374A" transform="translate(155,41)"/>
<path d="M0 0 C2 2 2 2 2.25 5 C2 8 2 8 0 10 C-2.5 9.875 -2.5 9.875 -5 9 C-6.3125 6.9375 -6.3125 6.9375 -7 5 C-4.69 3.35 -2.38 1.7 0 0 Z " fill="#F7AEC8" transform="translate(66,360)"/>
<path d="M0 0 C0.66 0.66 1.32 1.32 2 2 C1.43410156 2.85722656 0.86820313 3.71445313 0.28515625 4.59765625 C-0.4563738 5.75219039 -1.19722314 6.90716193 -1.9375 8.0625 C-2.31068359 8.62388672 -2.68386719 9.18527344 -3.06835938 9.76367188 C-5.67000026 13.86535795 -6.43324119 17.22977999 -7 22 C-9.0625 23.4375 -9.0625 23.4375 -11 24 C-10.71125 23.38125 -10.4225 22.7625 -10.125 22.125 C-9.13151497 19.36531935 -8.71994359 17.12449213 -8.3125 14.25 C-7.22452411 8.26163684 -4.00420695 4.43246438 0 0 Z " fill="#F7ADCD" transform="translate(199,92)"/>
<path d="M0 0 C3.86927013 1.50137976 5.45130316 3.72027637 7.8125 7.0625 C10.42895748 10.61569009 10.42895748 10.61569009 14.07421875 12.87890625 C16.17310407 13.20190467 16.17310407 13.20190467 19 13 C19 13.33 19 13.66 19 14 C17.02 14 15.04 14 13 14 C13 15.65 13 17.3 13 19 C9.34331035 15.67039956 6.85833756 11.96290031 4.25 7.8125 C3.83878906 7.17119141 3.42757812 6.52988281 3.00390625 5.86914062 C0 1.14372664 0 1.14372664 0 0 Z " fill="#A6C667" transform="translate(154,256)"/>
<path d="M0 0 C6.0546875 -0.1953125 6.0546875 -0.1953125 8 0 C8.66 0.66 9.32 1.32 10 2 C9.63318342 4.93453261 9.13562754 5.86437246 7 8 C6.01 8 5.02 8 4 8 C0 2.74285714 0 2.74285714 0 0 Z " fill="#F9AFCA" transform="translate(280,326)"/>
<path d="M0 0 C3.96 0 7.92 0 12 0 C12 1.65 12 3.3 12 5 C7.04230204 5.29162929 3.97193147 5.12940055 0 2 C0 1.34 0 0.68 0 0 Z " fill="#1D1317" transform="translate(146,70)"/>
<path d="M0 0 C0.66 0.33 1.32 0.66 2 1 C-1.58065993 8.4726816 -7.14891529 13.43261019 -14 18 C-14.99 17.67 -15.98 17.34 -17 17 C-16.43152344 16.5875 -15.86304688 16.175 -15.27734375 15.75 C-9.48090047 11.41476363 -3.30537071 6.61074143 0 0 Z " fill="#261017" transform="translate(213,92)"/>
<path d="M0 0 C0.99 0 1.98 0 3 0 C3.53625 1.11375 4.0725 2.2275 4.625 3.375 C6.34958891 6.44576082 6.84217726 6.93019379 10.25 8.4375 C11.1575 8.623125 12.065 8.80875 13 9 C13 9.66 13 10.32 13 11 C10.375 11.4375 10.375 11.4375 7 11 C3.34341483 7.94864272 0.88678564 4.71561306 0 0 Z " fill="#191113" transform="translate(85,157)"/>
<path d="M0 0 C-2.56529193 6.37047496 -9.54474001 10.91918481 -15.5 14 C-18 15 -18 15 -20 15 C-20 14.34 -20 13.68 -20 13 C-18.88625 12.525625 -17.7725 12.05125 -16.625 11.5625 C-11.6952694 9.14165015 -8.03739334 5.60554779 -4.1015625 1.828125 C-2 0 -2 0 0 0 Z " fill="#2B1C21" transform="translate(206,143)"/>
<path d="M0 0 C0 0.66 0 1.32 0 2 C-2.17875667 3.59974462 -4.34265568 5.06262823 -6.625 6.5 C-7.24246094 6.90347656 -7.85992187 7.30695313 -8.49609375 7.72265625 C-12.22175188 10.09923396 -15.70985898 11.78556008 -20 13 C-20 12.34 -20 11.68 -20 11 C-19.28714844 10.62488281 -18.57429687 10.24976563 -17.83984375 9.86328125 C-13.37747561 7.47894726 -9.01157348 5.13739755 -4.9375 2.125 C-2 0 -2 0 0 0 Z " fill="#26191E" transform="translate(203,138)"/>
<path d="M0 0 C-1.69024902 5.07074705 -6.57474743 7.29011683 -11 10 C-14.625 11.4375 -14.625 11.4375 -17 12 C-17 11.34 -17 10.68 -17 10 C-15.824375 9.46375 -14.64875 8.9275 -13.4375 8.375 C-9.56382523 6.46224408 -6.58299034 4.11983278 -3.4453125 1.171875 C-2 0 -2 0 0 0 Z " fill="#281A1E" transform="translate(206,152)"/>
<path d="M0 0 C2.475 0.495 2.475 0.495 5 1 C5.125 3.375 5.125 3.375 5 6 C4.34 6.66 3.68 7.32 3 8 C2.01 8 1.02 8 0 8 C0 5.36 0 2.72 0 0 Z " fill="#D9DCDD" transform="translate(158,43)"/>
<path d="M0 0 C0.515625 0.309375 1.03125 0.61875 1.5625 0.9375 C4.66665423 2.29059287 7.65115007 2.61359424 11 3 C11 3.33 11 3.66 11 4 C9.02 4 7.04 4 5 4 C5 5.65 5 7.3 5 9 C1.7457985 6.16569547 0.4793247 4.31392226 0 0 Z " fill="#B9D15B" transform="translate(162,266)"/>
<path d="M0 0 C1.06032743 3.18098228 0.9708943 4.36533728 0.3125 7.5625 C0.16425781 8.34753906 0.01601562 9.13257812 -0.13671875 9.94140625 C-1 12 -1 12 -3.08203125 13.27734375 C-3.71496094 13.51582031 -4.34789062 13.75429687 -5 14 C-4.690625 13.319375 -4.38125 12.63875 -4.0625 11.9375 C-2.85899819 8.93267576 -2.85899819 8.93267576 -2.5 5.3125 C-2 2 -2 2 0 0 Z " fill="#E8B9C5" transform="translate(193,102)"/>
<path d="M0 0 C4.03453354 1.34484451 4.72319069 3.48129471 7 7 C8.29682374 8.36886951 9.61823134 9.7169291 11 11 C5.42671021 9.6886377 2.93290525 5.58581405 0 1 C0 0.67 0 0.34 0 0 Z " fill="#302027" transform="translate(230,341)"/>
<path d="M0 0 C0.99 0.33 1.98 0.66 3 1 C2.52949219 1.39832031 2.05898438 1.79664063 1.57421875 2.20703125 C0.64029297 3.00173828 0.64029297 3.00173828 -0.3125 3.8125 C-0.92738281 4.33457031 -1.54226562 4.85664063 -2.17578125 5.39453125 C-3.85424679 6.87172469 -5.43882034 8.40039131 -7 10 C-5.7771055 5.10842202 -4.3522544 2.65381366 0 0 Z " fill="#2E2228" transform="translate(49,311)"/>
<path d="M0 0 C1.37562854 1.28965176 2.70766393 2.62689293 4 4 C4 4.66 4 5.32 4 6 C1.69 6 -0.62 6 -3 6 C-3.33 5.34 -3.66 4.68 -4 4 C-2.35 4 -0.7 4 1 4 C0.67 2.68 0.34 1.36 0 0 Z " fill="#BBD34A" transform="translate(197,231)"/>
<path d="M0 0 C2.2477975 2.05233685 3.0022242 3.00667261 4 6 C1.69 5.67 -0.62 5.34 -3 5 C-3 4.34 -3 3.68 -3 3 C-2.01 2.67 -1.02 2.34 0 2 C0 1.34 0 0.68 0 0 Z " fill="#B1CA56" transform="translate(183,209)"/>
</svg>
