<svg width="1296" height="356" viewBox="0 0 1296 356" fill="none" xmlns="http://www.w3.org/2000/svg">
<g clip-path="url(#clip0_35_144)">
<rect width="356" height="356" rx="37.2139" fill="#3653C7"/>
<circle cx="295.836" cy="-8.69455" r="145.715" fill="#3B5BDB"/>
<path d="M162.405 261.368C141.646 261.368 123.974 257.508 109.391 249.787C94.9797 242.067 83.9994 231.258 76.4505 217.361C68.9016 203.464 65.1271 187.251 65.1271 168.722C65.1271 154.311 67.3575 141.357 71.8182 129.863C76.4505 118.196 83.0558 108.245 91.6341 100.01C100.212 91.6033 110.678 85.2553 123.031 80.9662C135.555 76.5054 149.709 74.2751 165.493 74.2751C174.072 74.2751 182.822 75.1329 191.743 76.8486C200.664 78.3927 209.414 81.3951 217.993 85.8558C222.453 87.9146 225.456 90.8312 227 94.6057C228.716 98.2086 229.23 102.069 228.544 106.186C228.029 110.132 226.571 113.821 224.169 117.252C221.939 120.512 218.85 122.743 214.904 123.944C210.958 124.973 206.498 124.372 201.522 122.142C196.375 119.74 190.799 117.939 184.795 116.738C178.79 115.365 172.442 114.679 165.751 114.679C154.256 114.679 144.648 116.738 136.928 120.855C129.379 124.973 123.717 131.064 119.943 139.127C116.168 147.191 114.281 157.056 114.281 168.722C114.281 186.222 118.57 199.433 127.148 208.354C135.727 217.276 148.423 221.736 165.236 221.736C170.383 221.736 175.959 221.222 181.964 220.192C188.14 219.163 194.317 217.704 200.493 215.817L191.743 233.574V189.568H173.729C167.895 189.568 163.349 188.109 160.089 185.193C157.001 182.276 155.457 178.158 155.457 172.84C155.457 167.521 157.001 163.49 160.089 160.744C163.349 157.828 167.895 156.37 173.729 156.37H211.816C217.821 156.37 222.368 157.999 225.456 161.259C228.716 164.347 230.345 168.894 230.345 174.899V231.773C230.345 236.92 229.23 241.295 227 244.898C224.941 248.501 221.596 251.074 216.963 252.618C208.9 255.363 200.15 257.508 190.714 259.052C181.277 260.596 171.841 261.368 162.405 261.368Z" fill="#FFF6F6"/>
<circle cx="276.313" cy="174.037" r="30.0241" fill="#A5B4FC"/>
</g>
<path d="M585.213 265.331C564.453 265.331 546.782 261.471 532.199 253.75C517.787 246.03 506.807 235.221 499.258 221.324C491.709 207.427 487.934 191.214 487.934 172.685C487.934 158.273 490.165 145.32 494.626 133.825C499.258 122.159 505.863 112.208 514.441 103.973C523.02 95.566 533.485 89.2181 545.838 84.9289C558.362 80.4682 572.517 78.2378 588.301 78.2378C596.879 78.2378 605.629 79.0957 614.55 80.8113C623.472 82.3554 632.222 85.3578 640.8 89.8186C645.261 91.8773 648.263 94.794 649.807 98.5684C651.523 102.171 652.038 106.032 651.351 110.149C650.837 114.095 649.378 117.784 646.976 121.215C644.746 124.475 641.658 126.705 637.712 127.906C633.766 128.936 629.305 128.335 624.33 126.105C619.183 123.703 613.607 121.901 607.602 120.7C601.597 119.328 595.249 118.642 588.558 118.642C577.063 118.642 567.455 120.7 559.735 124.818C552.186 128.936 546.524 135.026 542.75 143.09C538.975 151.153 537.088 161.019 537.088 172.685C537.088 190.185 541.377 203.395 549.956 212.317C558.534 221.238 571.23 225.699 588.043 225.699C593.19 225.699 598.766 225.184 604.771 224.155C610.947 223.126 617.124 221.667 623.3 219.78L614.55 237.537V193.53H596.536C590.703 193.53 586.156 192.072 582.896 189.155C579.808 186.239 578.264 182.121 578.264 176.803C578.264 171.484 579.808 167.452 582.896 164.707C586.156 161.791 590.703 160.332 596.536 160.332H634.624C640.628 160.332 645.175 161.962 648.263 165.222C651.523 168.31 653.153 172.857 653.153 178.861V235.736C653.153 240.883 652.038 245.258 649.807 248.86C647.748 252.463 644.403 255.037 639.771 256.581C631.707 259.326 622.957 261.471 613.521 263.015C604.085 264.559 594.649 265.331 585.213 265.331ZM725.743 265.331C715.964 265.331 707.3 263.529 699.751 259.927C692.374 256.324 686.54 251.434 682.251 245.258C678.134 238.91 676.075 231.704 676.075 223.64C676.075 214.376 678.477 207.084 683.281 201.766C688.085 196.447 695.805 192.673 706.442 190.442C717.079 188.04 731.234 186.839 748.905 186.839H763.059V208.457H748.905C742.214 208.457 736.638 208.971 732.177 210.001C727.888 210.859 724.714 212.317 722.655 214.376C720.596 216.263 719.567 218.751 719.567 221.839C719.567 225.785 720.94 229.045 723.685 231.618C726.601 234.192 730.719 235.478 736.037 235.478C740.327 235.478 744.101 234.535 747.361 232.647C750.792 230.76 753.537 228.187 755.596 224.927C757.655 221.496 758.684 217.55 758.684 213.089V183.236C758.684 177.06 757.054 172.685 753.794 170.112C750.706 167.538 745.302 166.251 737.581 166.251C733.464 166.251 728.832 166.766 723.685 167.795C718.538 168.653 712.79 170.283 706.442 172.685C701.81 174.401 697.864 174.658 694.604 173.457C691.344 172.256 688.771 170.197 686.884 167.281C685.168 164.364 684.31 161.19 684.31 157.759C684.482 154.327 685.597 151.068 687.656 147.98C689.886 144.891 693.232 142.489 697.692 140.774C705.927 137.686 713.476 135.627 720.339 134.597C727.373 133.568 733.807 133.053 739.64 133.053C753.709 133.053 765.289 135.112 774.382 139.23C783.647 143.176 790.51 149.352 794.97 157.759C799.603 165.994 801.919 176.631 801.919 189.67V241.655C801.919 249.204 800.117 254.951 796.514 258.897C792.912 262.843 787.679 264.816 780.816 264.816C773.782 264.816 768.378 262.843 764.603 258.897C761 254.951 759.199 249.204 759.199 241.655V234.964L760.743 238.567C759.885 244.057 757.912 248.775 754.824 252.721C751.736 256.667 747.704 259.755 742.728 261.985C737.753 264.216 732.091 265.331 725.743 265.331Z" fill="#FFF6F6"/>
<path d="M894.4 265.331C881.532 265.331 870.895 263.358 862.488 259.412C854.253 255.466 848.077 249.547 843.959 241.655C839.842 233.591 837.783 223.554 837.783 211.545V169.597H829.033C823.543 169.597 819.254 168.139 816.165 165.222C813.249 162.305 811.791 158.102 811.791 152.612C811.791 147.122 813.249 143.004 816.165 140.259C819.254 137.342 823.543 135.884 829.033 135.884H837.783V119.928C837.783 112.38 839.756 106.632 843.702 102.686C847.648 98.74 853.31 96.767 860.687 96.767C868.064 96.767 873.726 98.74 877.672 102.686C881.618 106.632 883.591 112.38 883.591 119.928V135.884H904.694C910.355 135.884 914.645 137.342 917.561 140.259C920.649 143.004 922.193 147.122 922.193 152.612C922.193 158.102 920.649 162.305 917.561 165.222C914.645 168.139 910.355 169.597 904.694 169.597H883.591V210.001C883.591 216.349 885.049 221.067 887.966 224.155C891.054 227.072 895.858 228.53 902.378 228.53C904.779 228.53 907.096 228.273 909.326 227.758C911.556 227.243 913.615 226.986 915.502 226.986C918.247 226.814 920.478 227.672 922.193 229.559C923.909 231.275 924.767 235.307 924.767 241.655C924.767 246.802 923.995 251.177 922.451 254.78C920.907 258.211 918.162 260.699 914.216 262.243C911.814 263.1 908.554 263.787 904.436 264.301C900.319 264.988 896.973 265.331 894.4 265.331ZM960.997 264.816C953.448 264.816 947.615 262.843 943.497 258.897C939.551 254.951 937.578 249.204 937.578 241.655V156.472C937.578 149.095 939.465 143.433 943.24 139.487C947.186 135.541 952.762 133.568 959.968 133.568C967.173 133.568 972.663 135.541 976.438 139.487C980.212 143.433 982.1 149.095 982.1 156.472V167.023H979.526C981.242 156.729 985.617 148.58 992.651 142.575C999.857 136.57 1008.78 133.396 1019.42 133.053C1024.39 132.882 1028.08 134.168 1030.48 136.913C1033.05 139.487 1034.43 144.377 1034.6 151.582C1034.6 157.759 1033.31 162.648 1030.74 166.251C1028.17 169.854 1023.28 171.999 1016.07 172.685L1010.15 173.2C1001.06 174.058 994.452 176.631 990.335 180.92C986.217 185.038 984.158 191.214 984.158 199.449V241.655C984.158 249.204 982.185 254.951 978.239 258.897C974.293 262.843 968.546 264.816 960.997 264.816ZM1091.91 265.331C1082.13 265.331 1073.47 263.529 1065.92 259.927C1058.54 256.324 1052.71 251.434 1048.42 245.258C1044.3 238.91 1042.24 231.704 1042.24 223.64C1042.24 214.376 1044.65 207.084 1049.45 201.766C1054.25 196.447 1061.98 192.673 1072.61 190.442C1083.25 188.04 1097.4 186.839 1115.07 186.839H1129.23V208.457H1115.07C1108.38 208.457 1102.81 208.971 1098.35 210.001C1094.06 210.859 1090.88 212.317 1088.83 214.376C1086.77 216.263 1085.74 218.751 1085.74 221.839C1085.74 225.785 1087.11 229.045 1089.85 231.618C1092.77 234.192 1096.89 235.478 1102.21 235.478C1106.5 235.478 1110.27 234.535 1113.53 232.647C1116.96 230.76 1119.71 228.187 1121.77 224.927C1123.82 221.496 1124.85 217.55 1124.85 213.089V183.236C1124.85 177.06 1123.22 172.685 1119.96 170.112C1116.88 167.538 1111.47 166.251 1103.75 166.251C1099.63 166.251 1095 166.766 1089.85 167.795C1084.71 168.653 1078.96 170.283 1072.61 172.685C1067.98 174.401 1064.03 174.658 1060.77 173.457C1057.51 172.256 1054.94 170.197 1053.05 167.281C1051.34 164.364 1050.48 161.19 1050.48 157.759C1050.65 154.327 1051.77 151.068 1053.83 147.98C1056.06 144.891 1059.4 142.489 1063.86 140.774C1072.1 137.686 1079.65 135.627 1086.51 134.597C1093.54 133.568 1099.98 133.053 1105.81 133.053C1119.88 133.053 1131.46 135.112 1140.55 139.23C1149.82 143.176 1156.68 149.352 1161.14 157.759C1165.77 165.994 1168.09 176.631 1168.09 189.67V241.655C1168.09 249.204 1166.29 254.951 1162.68 258.897C1159.08 262.843 1153.85 264.816 1146.99 264.816C1139.95 264.816 1134.55 262.843 1130.77 258.897C1127.17 254.951 1125.37 249.204 1125.37 241.655V234.964L1126.91 238.567C1126.06 244.057 1124.08 248.775 1120.99 252.721C1117.91 256.667 1113.87 259.755 1108.9 261.985C1103.92 264.216 1098.26 265.331 1091.91 265.331Z" fill="#3653C7"/>
<circle cx="1252.43" cy="220.801" r="42.8916" fill="#A5B4FC"/>
<defs>
<clipPath id="clip0_35_144">
<rect width="356" height="356" rx="37.2139" fill="white"/>
</clipPath>
</defs>
</svg>
