<?xml version="1.0" encoding="UTF-8"?>
<svg version="1.1" xmlns="http://www.w3.org/2000/svg" width="400" height="250">
<path d="M0 0 C15.53237135 7.59218887 28.74462318 9.64244529 45.28637695 4.68457031 C49.17363648 3.19354883 52.9437377 1.48942036 56.72387695 -0.25292969 C64.8072506 -3.86375039 72.65481158 -7.23611702 81.28637695 -9.31542969 C82.14489258 -9.53714844 83.0034082 -9.75886719 83.88793945 -9.98730469 C104.45118913 -14.37255102 128.63040865 -12.31311262 147.00512695 -1.75292969 C158.49206841 5.90503128 167.00131437 15.08527195 170.28637695 28.68457031 C171.98827456 47.56376008 165.57030619 62.89385523 153.50512695 77.37207031 C138.09062373 93.43789057 116.02831444 98.79747344 94.53637695 99.87207031 C72.2956579 100.24903165 52.15750417 95.26443219 31.90917969 86.25097656 C21.07882161 81.48786784 11.13222312 79.16505553 -0.71362305 79.37207031 C-1.75583008 79.38044922 -2.79803711 79.38882813 -3.87182617 79.39746094 C-10.9760283 79.50853352 -17.79096769 79.984269 -24.71362305 81.68457031 C-24.43647461 82.565 -24.15932617 83.44542969 -23.8737793 84.35253906 C-23.51155273 85.51398438 -23.14932617 86.67542969 -22.77612305 87.87207031 C-22.41647461 89.020625 -22.05682617 90.16917969 -21.6862793 91.35253906 C-15.55631859 112.3519627 -19.21235623 136.06348563 -29.5769043 155.02441406 C-41.85406098 176.48855874 -60.78980892 190.04696141 -84.39331055 196.87207031 C-107.04636207 202.41540527 -129.77646468 200.05322462 -150.1237793 188.34082031 C-168.68295057 176.47190837 -180.31465498 158.61633763 -185.25708008 137.34570312 C-190.42215963 112.4281694 -188.6276781 86.59378395 -174.71362305 64.68457031 C-163.29044812 48.65704465 -147.63237959 38.71924452 -128.71362305 33.68457031 C-126.23503922 33.34693041 -123.75588614 33.01343729 -121.27612305 32.68457031 C-117.00281743 31.84431359 -115.23970746 31.29774896 -112.37768555 27.96191406 C-111.04507283 25.71016728 -109.77344297 23.42134898 -108.5612793 21.10253906 C-105.72777707 15.86085947 -101.89172182 11.88373513 -97.71362305 7.68457031 C-96.60954102 6.52828125 -96.60954102 6.52828125 -95.4831543 5.34863281 C-68.68139257 -20.95929411 -30.64956184 -15.23671357 0 0 Z M-79.8659668 27.53613281 C-81.57819719 29.52709839 -82.67736742 31.28653373 -83.71362305 33.68457031 C-82.64112305 34.07644531 -81.56862305 34.46832031 -80.46362305 34.87207031 C-63.59048798 41.24041406 -49.32480311 48.59171323 -36.71362305 61.68457031 C-35.70041992 61.33523437 -34.6872168 60.98589844 -33.64331055 60.62597656 C-32.29183075 60.16609802 -30.94026358 59.70647622 -29.58862305 59.24707031 C-28.9234668 59.01697266 -28.25831055 58.786875 -27.57299805 58.54980469 C-26.91557617 58.32744141 -26.2581543 58.10507813 -25.58081055 57.87597656 C-24.98381348 57.67174072 -24.38681641 57.46750488 -23.77172852 57.25708008 C-17.07451836 55.39409576 -10.3594142 55.43220803 -3.46362305 55.37207031 C-2.40143555 55.34306641 -1.33924805 55.3140625 -0.24487305 55.28417969 C17.15513374 55.1501749 33.58002843 61.1585192 49.90820312 66.55102539 C69.66614129 73.10318493 69.66614129 73.10318493 90.28637695 75.05957031 C91.40919067 75.04543091 91.40919067 75.04543091 92.5546875 75.03100586 C109.05435791 74.59252865 125.91575315 70.02262159 138.28637695 58.68457031 C144.410111 51.3409208 146.03690687 45.13568779 145.28637695 35.68457031 C144.04059159 29.18114843 141.37598807 23.98127359 136.28637695 19.68457031 C127.15530606 13.73912346 117.03835606 11.85525663 106.28637695 12.68457031 C104.62541992 12.81025391 104.62541992 12.81025391 102.9309082 12.93847656 C91.37823089 14.4100814 81.0460242 18.68141662 70.41040039 23.21679688 C44.20412502 34.31559501 17.66676362 36.28299052 -9.15112305 25.99707031 C-13.33768318 24.23691438 -17.43310377 22.35099969 -21.51831055 20.36816406 C-22.34919189 19.96621826 -23.18007324 19.56427246 -24.03613281 19.15014648 C-25.64450991 18.36496072 -27.24709244 17.56773999 -28.84228516 16.75610352 C-48.34579647 7.12938384 -65.16840338 12.76080451 -79.8659668 27.53613281 Z " fill="#EFD638" transform="translate(208.713623046875,32.3154296875)"/>
<path d="M0 0 C15.53237135 7.59218887 28.74462318 9.64244529 45.28637695 4.68457031 C49.17363648 3.19354883 52.9437377 1.48942036 56.72387695 -0.25292969 C64.8072506 -3.86375039 72.65481158 -7.23611702 81.28637695 -9.31542969 C82.14489258 -9.53714844 83.0034082 -9.75886719 83.88793945 -9.98730469 C104.45118913 -14.37255102 128.63040865 -12.31311262 147.00512695 -1.75292969 C158.49206841 5.90503128 167.00131437 15.08527195 170.28637695 28.68457031 C171.98827456 47.56376008 165.57030619 62.89385523 153.50512695 77.37207031 C138.09062373 93.43789057 116.02831444 98.79747344 94.53637695 99.87207031 C72.2956579 100.24903165 52.15750417 95.26443219 31.90917969 86.25097656 C21.10307942 81.49853625 11.1687223 79.1647046 -0.65112305 79.37207031 C-2.21056641 79.38463867 -2.21056641 79.38463867 -3.80151367 79.39746094 C-11.25106633 79.51378749 -18.41900862 80.08887341 -25.71362305 81.68457031 C-26.2447168 80.74355469 -26.77581055 79.80253906 -27.32299805 78.83300781 C-28.03642208 77.57512859 -28.74997039 76.31731985 -29.46362305 75.05957031 C-29.81166992 74.44210938 -30.1597168 73.82464844 -30.51831055 73.18847656 C-32.76480656 69.23630766 -35.14929619 65.43865243 -37.71362305 61.68457031 C-26.34053807 55.89517047 -15.64441989 54.39686406 -3.02612305 54.24707031 C-1.9885083 54.22483398 -0.95089355 54.20259766 0.11816406 54.1796875 C17.35249757 54.22732174 33.7275015 60.20722332 49.90820312 65.55102539 C69.66614129 72.10318493 69.66614129 72.10318493 90.28637695 74.05957031 C91.40919067 74.04543091 91.40919067 74.04543091 92.5546875 74.03100586 C108.274592 73.61325085 125.39747824 69.47900362 137.28637695 58.68457031 C143.38629362 51.32732389 145.049826 45.13745758 144.28637695 35.68457031 C143.10306744 29.86119674 140.97777442 24.5454333 136.28637695 20.68457031 C127.08581137 14.79096958 117.08348074 12.85177611 106.28637695 13.68457031 C104.62541992 13.81025391 104.62541992 13.81025391 102.9309082 13.93847656 C91.37823089 15.4100814 81.0460242 19.68141662 70.41040039 24.21679688 C44.20412502 35.31559501 17.66676362 37.28299052 -9.15112305 26.99707031 C-13.33768318 25.23691438 -17.43310377 23.35099969 -21.51831055 21.36816406 C-22.34919189 20.96621826 -23.18007324 20.56427246 -24.03613281 20.15014648 C-25.64450991 19.36496072 -27.24709244 18.56773999 -28.84228516 17.75610352 C-39.14449991 12.67104309 -49.15251066 11.57604708 -60.34643555 14.33300781 C-67.48838289 16.77335972 -74.94687183 21.89974043 -78.78637695 28.53979492 C-80.26486896 30.87004599 -81.37799423 32.18079847 -83.71362305 33.68457031 C-89.0475245 34.41867468 -94.24815357 34.02260552 -99.58862305 33.62207031 C-101.05458346 33.53866669 -102.52073509 33.45855466 -103.98706055 33.38183594 C-107.56558491 33.18744243 -111.13945567 32.94820719 -114.71362305 32.68457031 C-109.27031956 15.50759235 -94.32159869 1.82273393 -78.71362305 -6.31542969 C-52.24688495 -18.98002929 -25.01341708 -12.43483588 0 0 Z " fill="#A2D248" transform="translate(208.713623046875,32.3154296875)"/>
<path d="M0 0 C3.70299254 1.04060179 5.19007954 2.77584671 7.61328125 5.734375 C10.34828899 20.14762376 6.09215126 37.08644048 4.23828125 51.421875 C3.91703513 53.97188777 3.59671664 56.52201757 3.27734375 59.07226562 C1.81976701 70.64138906 0.28756367 82.19441021 -1.38671875 93.734375 C-0.16984375 93.651875 1.04703125 93.569375 2.30078125 93.484375 C5.68589865 93.47237104 6.55196359 93.69523607 9.55078125 95.609375 C12.670037 98.82315365 12.80538321 101.03931697 13.13671875 105.46875 C12.30753291 109.05776334 10.50281338 111.54354226 7.61328125 113.734375 C4.22709214 114.60538716 0.93767903 114.52893691 -2.54296875 114.4609375 C-4.01280212 114.46243301 -4.01280212 114.46243301 -5.5123291 114.46395874 C-7.58007944 114.45928644 -9.64784207 114.43988248 -11.71533203 114.40673828 C-14.87636243 114.35952967 -18.03401888 114.36562144 -21.1953125 114.37890625 C-23.20705132 114.36775217 -25.21877595 114.35353206 -27.23046875 114.3359375 C-28.17329712 114.33776031 -29.11612549 114.33958313 -30.08752441 114.34146118 C-34.36531457 114.24925147 -36.76038083 114.12429325 -40.45898438 111.82177734 C-43.44680214 108.58648835 -43.7740963 106.19109251 -43.75 101.7734375 C-43.14637272 98.385336 -40.97112395 96.81450601 -38.38671875 94.734375 C-37.89171875 94.239375 -37.89171875 94.239375 -37.38671875 93.734375 C-34.71613024 93.59322339 -32.06239637 93.69190393 -29.38671875 93.734375 C-29.33773437 92.9609375 -29.28875 92.1875 -29.23828125 91.390625 C-29.16351563 90.3490625 -29.08875 89.3075 -29.01171875 88.234375 C-28.94210938 87.2134375 -28.8725 86.1925 -28.80078125 85.140625 C-28.42303267 82.03310839 -27.73964635 79.1557594 -26.94384766 76.13476562 C-25.72822058 70.89723479 -25.05024139 65.54960171 -24.26171875 60.234375 C-24.07996094 59.03039062 -23.89820312 57.82640625 -23.7109375 56.5859375 C-23.26609288 53.6359153 -22.82478298 50.68541033 -22.38671875 47.734375 C-22.98613281 48.05664062 -23.58554688 48.37890625 -24.203125 48.7109375 C-27.16703833 50.10010618 -29.14326663 50.1315324 -32.38671875 49.734375 C-35.08662537 47.93443726 -36.92860525 46.650602 -38.38671875 43.734375 C-39.09956983 39.80336289 -39.0153039 37.81073437 -36.97949219 34.32470703 C-34.98251749 31.58003267 -32.90076459 28.93228436 -30.76171875 26.296875 C-29.33194651 24.48574398 -27.90225777 22.67454703 -26.47265625 20.86328125 C-25.77793213 19.99590332 -25.08320801 19.12852539 -24.36743164 18.23486328 C-22.56573224 15.96036491 -20.81941939 13.65661308 -19.09375 11.32421875 C-13.61323462 3.98118447 -9.53311812 -0.05518448 0 0 Z " fill="#FDF763" transform="translate(115.38671875,89.265625)"/>
<path d="" fill="#FFFFFF" transform="translate(0,0)"/>
</svg>
